<svg width="22" height="22" viewBox="0 0 22 22" fill="none" xmlns="http://www.w3.org/2000/svg">
<g clip-path="url(#clip0_222_1893)">
<path d="M3.90156 0.274994H18.1156C20.2641 0.274994 22.0172 2.01093 22.0172 4.17656V17.8406C22.0172 19.9891 20.2812 21.7422 18.1156 21.7422H3.90156C1.73594 21.725 0 19.9891 0 17.8234V4.17656C0 2.01093 1.73594 0.274994 3.90156 0.274994Z" fill="#330000"/>
<path d="M10.6391 13.1141H7.2188L6.53129 15.2625C6.51411 15.3485 6.44536 15.4 6.35942 15.3828H4.64067C4.53754 15.3828 4.52036 15.3313 4.53754 15.2109L7.49379 6.72032C7.52817 6.63439 7.54536 6.53126 7.57973 6.41095C7.61411 6.22189 7.63129 6.01564 7.63129 5.80939C7.61411 5.75782 7.66567 5.72345 7.70004 5.70626H10.0719C10.1407 5.70626 10.175 5.74064 10.1922 5.77501L13.5438 15.2109C13.5782 15.3141 13.5438 15.3656 13.4579 15.3656H11.5329C11.4641 15.3828 11.4125 15.3313 11.3782 15.2625L10.6391 13.1141ZM7.75161 11.2406H10.0719C10.0204 11.0516 9.95161 10.8109 9.86567 10.5875C9.77973 10.3469 9.69379 10.0719 9.62504 9.79689C9.53911 9.5047 9.45317 9.2297 9.36723 8.9547C9.28129 8.66251 9.19536 8.4047 9.12661 8.14689C9.05786 7.88908 8.98911 7.64845 8.92036 7.42501H8.90317C8.81723 7.82032 8.71411 8.21564 8.59379 8.61095C8.45629 9.05782 8.31879 9.5047 8.16411 9.96876C8.02661 10.4328 7.88911 10.8625 7.75161 11.2406ZM15.5891 7.33908C15.2797 7.35626 14.9875 7.23595 14.7813 7.01251C14.575 6.78907 14.4547 6.4797 14.4719 6.17033C14.4547 5.86095 14.575 5.56876 14.7985 5.36251C15.0219 5.15626 15.3141 5.03595 15.6063 5.03595C15.9672 5.03595 16.2422 5.13907 16.4485 5.36251C16.6547 5.58595 16.7579 5.87814 16.7579 6.17033C16.775 6.4797 16.6547 6.78907 16.4313 7.01251C16.2079 7.23595 15.8985 7.35626 15.5891 7.33908ZM14.5579 15.2969V8.23283C14.5579 8.14689 14.5922 8.11251 14.6782 8.11251H16.5C16.586 8.11251 16.6204 8.16408 16.6204 8.23283V15.2969C16.6204 15.4 16.586 15.4516 16.5 15.4516H14.6954C14.6094 15.4344 14.5579 15.3828 14.5579 15.2969Z" fill="#FF9A00"/>
</g>
<defs>
<clipPath id="clip0_222_1893">
<rect width="22" height="22" fill="white"/>
</clipPath>
</defs>
</svg>
