<svg width="22" height="22" viewBox="0 0 22 22" fill="none" xmlns="http://www.w3.org/2000/svg">
<g clip-path="url(#clip0_222_1945)">
<path d="M16.8438 0H5.15625C2.30853 0 0 2.30853 0 5.15625V16.8438C0 19.6915 2.30853 22 5.15625 22H16.8438C19.6915 22 22 19.6915 22 16.8438V5.15625C22 2.30853 19.6915 0 16.8438 0Z" fill="#242938"/>
<path d="M9.07106 11.7978C9.13766 10.6049 9.71894 9.55401 10.5959 8.80902C11.456 8.07735 12.6137 7.63013 13.8768 7.63013C15.1386 7.63013 16.2963 8.07735 17.1569 8.80902C18.0333 9.55401 18.6146 10.6049 18.6818 11.7965C18.7483 13.0221 18.258 14.1607 17.398 15.0047C16.521 15.8632 15.2736 16.4019 13.8768 16.4019C12.4799 16.4019 11.2301 15.8632 10.3537 15.0047C9.49292 14.1607 9.00394 13.0221 9.07106 11.7978Z" fill="white"/>
<path d="M11.4109 11.9048C11.445 11.2928 11.7433 10.7535 12.1932 10.3713C12.6345 9.99581 13.2285 9.76636 13.8767 9.76636C14.5241 9.76636 15.1181 9.99581 15.5597 10.3713C16.0094 10.7535 16.3077 11.2928 16.3421 11.9041C16.3762 12.533 16.1247 13.1172 15.6834 13.5504C15.2334 13.9909 14.5934 14.2672 13.8767 14.2672C13.1599 14.2672 12.5186 13.9909 12.0689 13.5504C11.6273 13.1172 11.3764 12.533 11.4109 11.9048Z" fill="#265787"/>
<path d="M7.4843 13.1416C7.48851 13.3811 7.56448 13.8465 7.67852 14.21C7.91828 14.9793 8.32477 15.6911 8.89032 16.3183C9.47083 16.9631 10.1856 17.481 11.0112 17.8486C11.879 18.2347 12.8192 18.4315 13.7959 18.4299C14.7709 18.4286 15.7112 18.228 16.579 17.8389C17.4046 17.4677 18.1187 16.9476 18.6982 16.3025C19.2635 15.6726 19.6694 14.9596 19.9097 14.1903C20.0295 13.807 20.1059 13.4115 20.1374 13.0111C20.1674 12.6206 20.1548 12.2279 20.0998 11.8401C19.9922 11.0795 19.7302 10.3658 19.3269 9.71525C18.9582 9.11747 18.4827 8.59411 17.9174 8.15359L17.9187 8.15256L12.2136 3.7511C12.2085 3.74714 12.2043 3.74293 12.1988 3.73941C11.8245 3.45066 11.1951 3.45169 10.7834 3.74104C10.3672 4.03366 10.3196 4.51749 10.69 4.82274L10.6884 4.82437L13.0679 6.76862L5.81539 6.77636H5.80577C5.20627 6.77704 4.63006 7.17218 4.51602 7.67165C4.3988 8.1804 4.80589 8.60244 5.42919 8.60476L5.42825 8.607L9.10422 8.59986L2.54461 13.6591C2.53628 13.6653 2.52725 13.6717 2.51952 13.6779C1.90077 14.154 1.70071 14.9457 2.09043 15.4467C2.486 15.9562 3.32707 15.9571 3.95227 15.4496L7.53234 12.5056C7.53234 12.5056 7.48009 12.903 7.4843 13.1416ZM16.6837 14.4725C15.946 15.2276 14.9133 15.6558 13.7959 15.6581C12.6768 15.6601 11.6441 15.2357 10.9065 14.4819C10.5461 14.1145 10.2812 13.6918 10.1179 13.2416C9.95721 12.7983 9.89544 12.3253 9.93696 11.8556C9.97589 11.3925 10.1131 10.9507 10.3322 10.551C10.5474 10.158 10.8437 9.80299 11.2096 9.50264C11.9267 8.91551 12.8395 8.59763 13.7943 8.59634C14.75 8.59505 15.6622 8.90993 16.3799 9.49516C16.7452 9.79422 17.0412 10.148 17.2564 10.5402C17.4785 10.9424 17.6136 11.3867 17.6532 11.8443C17.6941 12.3137 17.6321 12.7864 17.4715 13.2293C17.3079 13.6808 17.0441 14.1035 16.6837 14.4725Z" fill="#EA7600"/>
</g>
<defs>
<clipPath id="clip0_222_1945">
<rect width="22" height="22" fill="white"/>
</clipPath>
</defs>
</svg>
