<svg width="21" height="21" viewBox="0 0 21 21" fill="none" xmlns="http://www.w3.org/2000/svg">
<path d="M10.1386 11.3215L12.5888 13.7717C12.7436 13.9266 12.9408 14.004 13.1802 14.004C13.4196 14.004 13.6167 13.9266 13.7716 13.7717C13.9265 13.6168 14.0039 13.4196 14.0039 13.1802C14.0039 12.9409 13.9265 12.7437 13.7716 12.5888L11.3214 10.1387L13.7716 7.68848C13.9265 7.53358 14.0039 7.33644 14.0039 7.09706C14.0039 6.85767 13.9265 6.66053 13.7716 6.50563C13.6167 6.35074 13.4196 6.27329 13.1802 6.27329C12.9408 6.27329 12.7436 6.35074 12.5888 6.50563L10.1386 8.95581L7.6884 6.50563C7.53351 6.35074 7.33637 6.27329 7.09698 6.27329C6.8576 6.27329 6.66046 6.35074 6.50556 6.50563C6.35066 6.66053 6.27322 6.85767 6.27322 7.09706C6.27322 7.33644 6.35066 7.53358 6.50556 7.68848L8.95573 10.1387L6.50556 12.5888C6.35066 12.7437 6.27322 12.9409 6.27322 13.1802C6.27322 13.4196 6.35066 13.6168 6.50556 13.7717C6.66046 13.9266 6.8576 14.004 7.09698 14.004C7.33637 14.004 7.53351 13.9266 7.6884 13.7717L10.1386 11.3215ZM10.1386 18.5875C8.96982 18.5875 7.87146 18.3656 6.84351 17.9218C5.81557 17.4779 4.92139 16.8761 4.161 16.1162C3.4006 15.3564 2.79875 14.4622 2.35547 13.4337C1.91219 12.4052 1.69026 11.3069 1.6897 10.1387C1.68914 8.97045 1.91106 7.8721 2.35547 6.84359C2.79988 5.81508 3.40172 4.92091 4.161 4.16107C4.92027 3.40123 5.81444 2.79939 6.84351 2.35555C7.87259 1.9117 8.97094 1.68977 10.1386 1.68977C11.3062 1.68977 12.4046 1.9117 13.4336 2.35555C14.4627 2.79939 15.3569 3.40123 16.1162 4.16107C16.8754 4.92091 17.4776 5.81508 17.9225 6.84359C18.3675 7.8721 18.5891 8.97045 18.5875 10.1387C18.5858 11.3069 18.3638 12.4052 17.9217 13.4337C17.4795 14.4622 16.8777 15.3564 16.1162 16.1162C15.3546 16.8761 14.4605 17.4782 13.4336 17.9226C12.4068 18.367 11.3085 18.5887 10.1386 18.5875Z" fill="white"/>
</svg>
