<svg width="32" height="23" viewBox="0 0 32 23" fill="none" xmlns="http://www.w3.org/2000/svg">
<path d="M6.26329 3.2H1.11129C0.519291 3.2 -0.0727087 3.712 0.00729131 4.544L2.50329 20.528C2.50329 20.528 5.46329 8.752 6.03929 5.92C6.21529 5.072 7.01529 4.8 7.60729 4.8H15.8633C15.8633 4.8 14.7433 1.472 14.6313 1.104C14.4393 0.4 14.0873 0 13.3833 0H8.08729C7.51129 0 6.96729 0.368 6.80729 1.024C6.66329 1.664 6.26329 3.2 6.26329 3.2ZM14.0713 3.2H7.67129C7.67129 3.2 8.34329 1.6 9.06329 1.6H12.4713C13.2393 1.6 14.0713 3.2 14.0713 3.2ZM4.13529 21.2C3.63929 21.952 2.91929 22.4 2.11929 22.4H27.2873C28.1513 22.4 28.7593 21.904 28.9353 21.072C29.6393 17.568 31.6233 7.568 31.6233 7.568C31.7353 6.768 31.1433 6.4 30.6313 6.4H25.4633V4.048C25.4633 3.792 25.0473 3.2 24.4073 3.2H18.3913C17.5593 3.2 16.9993 4.128 16.9993 4.128L15.8633 6.4H8.80729C8.29529 6.4 7.79929 6.704 7.70329 7.2C7.70329 7.2 5.15929 17.92 4.95129 18.928C4.83929 19.52 4.59929 20.512 4.13529 21.2ZM24.4713 6.4H17.4633C17.4633 6.4 18.3913 4.8 19.2713 4.8H22.9353C24.0713 4.8 24.4713 6.4 24.4713 6.4Z" fill="white"/>
</svg>
