<svg width="299" height="289" viewBox="0 0 299 289" fill="none" xmlns="http://www.w3.org/2000/svg">
<path d="M298.861 145.206C297.134 101.278 279.554 61.4474 251.657 31.2476L137.699 145.206H298.861Z" fill="#A5BECC"/>
<path d="M125.363 143.494L228.516 40.3403C201.416 15.2992 165.194 0 125.363 0C85.554 0 49.3318 15.3213 22.2095 40.3403L125.363 143.494Z" fill="#CFB088"/>
<path d="M129.925 155.466V288.354C202.038 285.52 259.98 227.578 262.814 155.466H129.925Z" fill="#6E8688"/>
<path d="M120.49 152.708L33.2996 65.5179C12.6423 87.88 0 117.77 0 150.627C0 218.244 53.4918 273.352 120.467 275.987V152.708H120.49Z" fill="#D4AEA1"/>
<path d="M113.734 48.4876C110.902 48.4876 109.446 46.9196 109.414 44.5196H111.494C111.574 45.8316 112.15 46.7436 113.654 46.7436C114.87 46.7436 115.59 46.0876 115.59 44.9676C115.59 43.9116 114.918 43.2716 113.574 43.2716H112.902V41.6236H113.526C114.566 41.6236 115.302 41.0956 115.302 40.1676C115.302 39.3036 114.71 38.7276 113.75 38.7276C112.502 38.7276 111.894 39.5436 111.846 40.6796H109.766C109.846 38.5196 111.206 37.0636 113.75 37.0636C116.038 37.0636 117.51 38.1996 117.51 40.0236C117.51 41.2556 116.726 41.9756 115.638 42.3276V42.3596C117.03 42.6956 117.862 43.5916 117.862 45.1116C117.862 47.3836 115.99 48.4876 113.734 48.4876ZM123.308 48.5036C120.508 48.5036 118.732 46.2636 118.732 42.7756C118.732 39.2716 120.54 37.0476 123.324 37.0476C126.156 37.0476 127.884 39.2556 127.884 42.7756C127.884 46.2636 126.156 48.5036 123.308 48.5036ZM123.324 46.6476C124.956 46.6476 125.612 45.1276 125.612 42.7756C125.612 40.4556 124.94 38.9036 123.324 38.9036C121.692 38.9036 121.004 40.4396 121.004 42.7756C121.004 45.0956 121.692 46.6476 123.324 46.6476ZM131.498 36.6636C132.319 36.6636 132.938 36.9782 133.354 37.6076C133.78 38.2262 133.994 39.1009 133.994 40.2316C133.994 41.3622 133.791 42.2476 133.386 42.8876C132.991 43.5169 132.362 43.8316 131.498 43.8316C130.975 43.8316 130.527 43.6876 130.154 43.3996C129.791 43.1116 129.519 42.7009 129.338 42.1676C129.156 41.6236 129.066 40.9782 129.066 40.2316C129.066 39.1009 129.258 38.2262 129.642 37.6076C130.036 36.9782 130.655 36.6636 131.498 36.6636ZM131.498 37.8476C131.146 37.8476 130.884 38.0502 130.714 38.4556C130.543 38.8502 130.458 39.4422 130.458 40.2316C130.458 41.0316 130.543 41.6342 130.714 42.0396C130.884 42.4449 131.146 42.6476 131.498 42.6476C131.871 42.6476 132.148 42.4502 132.33 42.0556C132.511 41.6502 132.602 41.0422 132.602 40.2316C132.602 39.4422 132.511 38.8502 132.33 38.4556C132.148 38.0502 131.871 37.8476 131.498 37.8476ZM139.05 36.8236L132.714 48.2476H131.29L137.626 36.8236H139.05ZM138.794 41.2396C139.338 41.2396 139.791 41.3836 140.154 41.6716C140.527 41.9489 140.81 42.3542 141.002 42.8876C141.194 43.4102 141.29 44.0502 141.29 44.8076C141.29 45.9382 141.087 46.8236 140.682 47.4636C140.276 48.0929 139.647 48.4076 138.794 48.4076C138.26 48.4076 137.812 48.2636 137.45 47.9756C137.087 47.6876 136.81 47.2769 136.618 46.7436C136.436 46.1996 136.346 45.5542 136.346 44.8076C136.346 43.6769 136.538 42.8022 136.922 42.1836C137.316 41.5542 137.94 41.2396 138.794 41.2396ZM138.794 42.4236C138.431 42.4236 138.164 42.6209 137.994 43.0156C137.834 43.4102 137.754 44.0076 137.754 44.8076C137.754 45.6076 137.834 46.2102 137.994 46.6156C138.164 47.0102 138.431 47.2076 138.794 47.2076C139.167 47.2076 139.439 47.0102 139.61 46.6156C139.791 46.2209 139.882 45.6182 139.882 44.8076C139.882 44.0076 139.791 43.4102 139.61 43.0156C139.439 42.6209 139.167 42.4236 138.794 42.4236ZM83.2495 72.2476V60.8076H87.7135C90.7695 60.8076 92.7375 63.2716 92.7375 66.6476C92.7375 68.5036 92.1135 70.1356 90.9135 71.1436C90.0655 71.8476 88.9615 72.2476 87.5215 72.2476H83.2495ZM85.5695 70.2476H87.3615C89.5375 70.2476 90.3855 68.9196 90.3855 66.6476C90.3855 64.3756 89.3935 62.7916 87.4255 62.7916H85.5695V70.2476ZM93.8235 72.2476V64.0396H95.9995V72.2476H93.8235ZM93.8235 62.7596V60.8076H95.9995V62.7596H93.8235ZM99.4976 64.0396V65.3516H99.5456C100.042 64.4236 100.602 63.9436 101.562 63.9436C101.802 63.9436 101.946 63.9596 102.074 64.0076V65.9116H102.026C100.602 65.7676 99.5776 66.5196 99.5776 68.2476V72.2476H97.4016V64.0396H99.4976ZM106.633 72.4876C103.913 72.4876 102.377 70.5836 102.377 68.1356C102.377 65.7036 104.025 63.8156 106.425 63.8156C109.065 63.8156 110.473 65.8316 110.473 68.7596H104.521C104.681 70.0236 105.385 70.8076 106.617 70.8076C107.465 70.8076 107.961 70.4236 108.201 69.7996H110.345C110.041 71.2556 108.745 72.4876 106.633 72.4876ZM106.457 65.4956C105.305 65.4956 104.745 66.1836 104.553 67.2556H108.201C108.137 66.2156 107.449 65.4956 106.457 65.4956ZM115.288 72.4876C112.696 72.4876 111.08 70.5996 111.08 68.1516C111.08 65.7036 112.68 63.8156 115.176 63.8156C117.304 63.8156 118.616 65.0476 118.904 66.8236H116.776C116.632 66.1036 116.072 65.5596 115.272 65.5596C113.96 65.5596 113.288 66.5676 113.288 68.1516C113.288 69.7036 113.912 70.7436 115.24 70.7436C116.12 70.7436 116.744 70.2796 116.888 69.3516H118.984C118.84 71.0956 117.48 72.4876 115.288 72.4876ZM119.453 65.4796V64.0396H120.589V61.4796H122.717V64.0396H124.125V65.4796H122.717V69.8316C122.717 70.4396 123.053 70.6476 123.533 70.6476C123.805 70.6476 124.173 70.6316 124.173 70.6316V72.2316C124.173 72.2316 123.677 72.2636 122.813 72.2636C121.757 72.2636 120.589 71.8476 120.589 70.2956V65.4796H119.453ZM127.453 65.4796V64.0396H128.589V61.4796H130.717V64.0396H132.125V65.4796H130.717V69.8316C130.717 70.4396 131.053 70.6476 131.533 70.6476C131.805 70.6476 132.173 70.6316 132.173 70.6316V72.2316C132.173 72.2316 131.677 72.2636 130.813 72.2636C129.757 72.2636 128.589 71.8476 128.589 70.2956V65.4796H127.453ZM135.341 64.0396V65.3516H135.389C135.885 64.4236 136.445 63.9436 137.405 63.9436C137.645 63.9436 137.789 63.9596 137.917 64.0076V65.9116H137.869C136.445 65.7676 135.421 66.5196 135.421 68.2476V72.2476H133.245V64.0396H135.341ZM143.788 72.2476C143.66 72.0876 143.58 71.7036 143.532 71.3356H143.5C143.084 71.9596 142.492 72.4396 141.084 72.4396C139.404 72.4396 138.22 71.5596 138.22 69.9276C138.22 68.1196 139.692 67.5436 141.516 67.2876C142.876 67.0956 143.5 66.9836 143.5 66.3596C143.5 65.7676 143.036 65.3836 142.124 65.3836C141.1 65.3836 140.604 65.7516 140.54 66.5356H138.604C138.668 65.0956 139.74 63.8316 142.14 63.8316C144.604 63.8316 145.596 64.9356 145.596 66.8556V71.0316C145.596 71.6556 145.692 72.0236 145.884 72.1676V72.2476H143.788ZM141.612 70.9196C142.86 70.9196 143.548 70.1516 143.548 69.3516V68.1196C143.164 68.3436 142.572 68.4716 142.028 68.5996C140.892 68.8556 140.332 69.1116 140.332 69.8796C140.332 70.6476 140.844 70.9196 141.612 70.9196ZM146.5 65.5436V64.0396H147.62V63.3036C147.62 61.3036 149.172 60.5996 151.268 60.8236V62.5036C150.244 62.4556 149.796 62.5836 149.796 63.4316V64.0396H151.268V65.5436H149.796V72.2476H147.62V65.5436H146.5ZM151.703 65.5436V64.0396H152.823V63.3036C152.823 61.3036 154.375 60.5996 156.471 60.8236V62.5036C155.447 62.4556 154.999 62.5836 154.999 63.4316V64.0396H156.471V65.5436H154.999V72.2476H152.823V65.5436H151.703ZM157.464 72.2476V64.0396H159.64V72.2476H157.464ZM157.464 62.7596V60.8076H159.64V62.7596H157.464ZM164.85 72.4876C162.258 72.4876 160.642 70.5996 160.642 68.1516C160.642 65.7036 162.242 63.8156 164.738 63.8156C166.866 63.8156 168.178 65.0476 168.466 66.8236H166.338C166.194 66.1036 165.634 65.5596 164.834 65.5596C163.522 65.5596 162.85 66.5676 162.85 68.1516C162.85 69.7036 163.474 70.7436 164.802 70.7436C165.682 70.7436 166.306 70.2796 166.45 69.3516H168.546C168.402 71.0956 167.042 72.4876 164.85 72.4876Z" fill="white"/>
<path d="M44.4187 158.427C44.4987 156.331 45.8107 155.051 47.0587 154.075C48.4347 152.987 49.9387 152.219 49.9387 150.811C49.9387 149.787 49.3947 149.099 48.4187 149.099C47.3147 149.099 46.6587 149.899 46.6267 151.323H44.5787C44.5787 148.827 45.8587 147.243 48.4667 147.243C50.8507 147.243 52.1947 148.859 52.1947 150.747C52.1947 152.811 50.7867 153.787 49.4427 154.683C48.5947 155.227 47.6027 155.931 47.2347 156.635H52.2907V158.427H44.4187ZM57.8087 158.683C55.0087 158.683 53.2327 156.443 53.2327 152.955C53.2327 149.451 55.0407 147.227 57.8247 147.227C60.6567 147.227 62.3847 149.435 62.3847 152.955C62.3847 156.443 60.6567 158.683 57.8087 158.683ZM57.8247 156.827C59.4567 156.827 60.1127 155.307 60.1127 152.955C60.1127 150.635 59.4407 149.083 57.8247 149.083C56.1927 149.083 55.5047 150.619 55.5047 152.955C55.5047 155.275 56.1927 156.827 57.8247 156.827ZM65.9981 146.843C66.8194 146.843 67.4381 147.158 67.8541 147.787C68.2807 148.406 68.4941 149.281 68.4941 150.411C68.4941 151.542 68.2914 152.427 67.8861 153.067C67.4914 153.697 66.8621 154.011 65.9981 154.011C65.4754 154.011 65.0274 153.867 64.6541 153.579C64.2914 153.291 64.0194 152.881 63.8381 152.347C63.6567 151.803 63.5661 151.158 63.5661 150.411C63.5661 149.281 63.7581 148.406 64.1421 147.787C64.5367 147.158 65.1554 146.843 65.9981 146.843ZM65.9981 148.027C65.6461 148.027 65.3847 148.23 65.2141 148.635C65.0434 149.03 64.9581 149.622 64.9581 150.411C64.9581 151.211 65.0434 151.814 65.2141 152.219C65.3847 152.625 65.6461 152.827 65.9981 152.827C66.3714 152.827 66.6487 152.63 66.8301 152.235C67.0114 151.83 67.1021 151.222 67.1021 150.411C67.1021 149.622 67.0114 149.03 66.8301 148.635C66.6487 148.23 66.3714 148.027 65.9981 148.027ZM73.5501 147.003L67.2141 158.427H65.7901L72.1261 147.003H73.5501ZM73.2941 151.419C73.8381 151.419 74.2914 151.563 74.6541 151.851C75.0274 152.129 75.3101 152.534 75.5021 153.067C75.6941 153.59 75.7901 154.23 75.7901 154.987C75.7901 156.118 75.5874 157.003 75.1821 157.643C74.7767 158.273 74.1474 158.587 73.2941 158.587C72.7607 158.587 72.3127 158.443 71.9501 158.155C71.5874 157.867 71.3101 157.457 71.1181 156.923C70.9367 156.379 70.8461 155.734 70.8461 154.987C70.8461 153.857 71.0381 152.982 71.4221 152.363C71.8167 151.734 72.4407 151.419 73.2941 151.419ZM73.2941 152.603C72.9314 152.603 72.6647 152.801 72.4941 153.195C72.3341 153.59 72.2541 154.187 72.2541 154.987C72.2541 155.787 72.3341 156.39 72.4941 156.795C72.6647 157.19 72.9314 157.387 73.2941 157.387C73.6674 157.387 73.9394 157.19 74.1101 156.795C74.2914 156.401 74.3821 155.798 74.3821 154.987C74.3821 154.187 74.2914 153.59 74.1101 153.195C73.9394 152.801 73.6674 152.603 73.2941 152.603ZM43.7456 182.667C41.3616 182.667 40.0336 181.515 39.9056 179.771H41.9216C42.0656 180.715 42.7376 181.131 43.7136 181.131C44.6736 181.131 45.2176 180.763 45.2176 180.187C45.2176 179.403 44.1776 179.323 43.0576 179.099C41.5856 178.811 40.1456 178.411 40.1456 176.619C40.1456 174.843 41.6176 173.995 43.4896 173.995C45.6496 173.995 46.8496 175.067 47.0096 176.715H45.0416C44.9456 175.835 44.3856 175.515 43.4576 175.515C42.6096 175.515 42.0496 175.835 42.0496 176.427C42.0496 177.131 43.1376 177.195 44.3056 177.435C45.6816 177.723 47.2016 178.107 47.2016 180.027C47.2016 181.675 45.7936 182.667 43.7456 182.667ZM52.1494 182.667C49.6054 182.667 47.8614 180.779 47.8614 178.331C47.8614 175.883 49.6054 173.995 52.1494 173.995C54.6934 173.995 56.4374 175.883 56.4374 178.331C56.4374 180.779 54.6934 182.667 52.1494 182.667ZM52.1494 181.003C53.4774 181.003 54.2294 179.931 54.2294 178.331C54.2294 176.731 53.4774 175.643 52.1494 175.643C50.8054 175.643 50.0694 176.731 50.0694 178.331C50.0694 179.931 50.8054 181.003 52.1494 181.003ZM61.2569 182.667C58.6649 182.667 57.0489 180.779 57.0489 178.331C57.0489 175.883 58.6489 173.995 61.1449 173.995C63.2729 173.995 64.5849 175.227 64.8729 177.003H62.7449C62.6009 176.283 62.0409 175.739 61.2409 175.739C59.9289 175.739 59.2569 176.747 59.2569 178.331C59.2569 179.883 59.8809 180.923 61.2089 180.923C62.0889 180.923 62.7129 180.459 62.8569 179.531H64.9529C64.8089 181.275 63.4489 182.667 61.2569 182.667ZM65.902 182.427V174.219H68.078V182.427H65.902ZM65.902 172.939V170.987H68.078V172.939H65.902ZM74.6481 182.427C74.5201 182.267 74.4401 181.883 74.3921 181.515H74.3601C73.9441 182.139 73.3521 182.619 71.9441 182.619C70.2641 182.619 69.0801 181.739 69.0801 180.107C69.0801 178.299 70.5521 177.723 72.3761 177.467C73.7361 177.275 74.3601 177.163 74.3601 176.539C74.3601 175.947 73.8961 175.563 72.9841 175.563C71.9601 175.563 71.4641 175.931 71.4001 176.715H69.4641C69.5281 175.275 70.6001 174.011 73.0001 174.011C75.4641 174.011 76.4561 175.115 76.4561 177.035V181.211C76.4561 181.835 76.5521 182.203 76.7441 182.347V182.427H74.6481ZM72.4721 181.099C73.7201 181.099 74.4081 180.331 74.4081 179.531V178.299C74.0241 178.523 73.4321 178.651 72.8881 178.779C71.7521 179.035 71.1921 179.291 71.1921 180.059C71.1921 180.827 71.7041 181.099 72.4721 181.099ZM77.8715 182.427V170.987H80.0475V182.427H77.8715ZM39.4254 206.427V198.219H41.5214V199.323H41.5694C42.0174 198.571 42.8174 197.995 43.9534 197.995C44.9934 197.995 45.8254 198.571 46.2254 199.435H46.2574C46.8174 198.539 47.6814 197.995 48.7214 197.995C50.4494 197.995 51.4254 199.115 51.4254 200.907V206.427H49.2494V201.275C49.2494 200.347 48.7854 199.867 47.9854 199.867C47.0734 199.867 46.5134 200.571 46.5134 201.659V206.427H44.3374V201.275C44.3374 200.347 43.8734 199.867 43.0734 199.867C42.1934 199.867 41.6014 200.571 41.6014 201.659V206.427H39.4254ZM56.6252 206.667C53.9052 206.667 52.3692 204.763 52.3692 202.315C52.3692 199.883 54.0172 197.995 56.4172 197.995C59.0572 197.995 60.4652 200.011 60.4652 202.939H54.5132C54.6732 204.203 55.3772 204.987 56.6092 204.987C57.4572 204.987 57.9532 204.603 58.1932 203.979H60.3372C60.0332 205.435 58.7372 206.667 56.6252 206.667ZM56.4492 199.675C55.2972 199.675 54.7372 200.363 54.5452 201.435H58.1932C58.1292 200.395 57.4412 199.675 56.4492 199.675ZM64.5443 206.667C62.4803 206.667 61.0723 204.987 61.0723 202.331C61.0723 199.771 62.5283 197.995 64.5763 197.995C65.7283 197.995 66.4483 198.523 66.8963 199.211H66.9443V194.987H69.1203V206.427H67.0243V205.355H66.9923C66.5123 206.139 65.6963 206.667 64.5443 206.667ZM65.0243 204.843C66.3203 204.843 66.9923 203.883 66.9923 202.379C66.9923 200.811 66.4803 199.755 65.0883 199.755C63.8883 199.755 63.2803 200.811 63.2803 202.331C63.2803 203.915 63.9043 204.843 65.0243 204.843ZM70.5348 206.427V198.219H72.7108V206.427H70.5348ZM70.5348 196.939V194.987H72.7108V196.939H70.5348ZM79.2809 206.427C79.1529 206.267 79.0729 205.883 79.0249 205.515H78.9929C78.5769 206.139 77.9849 206.619 76.5769 206.619C74.8969 206.619 73.7129 205.739 73.7129 204.107C73.7129 202.299 75.1849 201.723 77.0089 201.467C78.3689 201.275 78.9929 201.163 78.9929 200.539C78.9929 199.947 78.5289 199.563 77.6169 199.563C76.5929 199.563 76.0969 199.931 76.0329 200.715H74.0969C74.1609 199.275 75.2329 198.011 77.6329 198.011C80.0969 198.011 81.0889 199.115 81.0889 201.035V205.211C81.0889 205.835 81.1849 206.203 81.3769 206.347V206.427H79.2809ZM77.1049 205.099C78.3529 205.099 79.0409 204.331 79.0409 203.531V202.299C78.6569 202.523 78.0649 202.651 77.5209 202.779C76.3849 203.035 75.8249 203.291 75.8249 204.059C75.8249 204.827 76.3369 205.099 77.1049 205.099Z" fill="white"/>
<path d="M221.192 101.569V93.921H218.712V92.481C220.056 92.433 221.256 91.937 221.48 90.529H223.384V101.569H221.192ZM229.169 101.809C226.737 101.809 224.961 100.529 224.753 98.401H226.897C227.089 99.473 227.985 99.985 229.121 99.985C230.369 99.985 231.153 99.089 231.153 97.921C231.153 96.625 230.273 95.905 229.121 95.905C228.289 95.905 227.649 96.225 227.329 96.593H225.233L226.289 90.609H232.753V92.417H227.809L227.393 94.785H227.425C227.905 94.369 228.689 94.097 229.697 94.097C231.633 94.097 233.409 95.553 233.409 97.921C233.409 100.209 231.569 101.809 229.169 101.809ZM236.931 89.985C237.753 89.985 238.371 90.2997 238.787 90.929C239.214 91.5477 239.427 92.4224 239.427 93.553C239.427 94.6837 239.225 95.569 238.819 96.209C238.425 96.8384 237.795 97.153 236.931 97.153C236.409 97.153 235.961 97.009 235.587 96.721C235.225 96.433 234.953 96.0224 234.771 95.489C234.59 94.945 234.499 94.2997 234.499 93.553C234.499 92.4224 234.691 91.5477 235.075 90.929C235.47 90.2997 236.089 89.985 236.931 89.985ZM236.931 91.169C236.579 91.169 236.318 91.3717 236.147 91.777C235.977 92.1717 235.891 92.7637 235.891 93.553C235.891 94.353 235.977 94.9557 236.147 95.361C236.318 95.7664 236.579 95.969 236.931 95.969C237.305 95.969 237.582 95.7717 237.763 95.377C237.945 94.9717 238.035 94.3637 238.035 93.553C238.035 92.7637 237.945 92.1717 237.763 91.777C237.582 91.3717 237.305 91.169 236.931 91.169ZM244.483 90.145L238.147 101.569H236.723L243.059 90.145H244.483ZM244.227 94.561C244.771 94.561 245.225 94.705 245.587 94.993C245.961 95.2704 246.243 95.6757 246.435 96.209C246.627 96.7317 246.723 97.3717 246.723 98.129C246.723 99.2597 246.521 100.145 246.115 100.785C245.71 101.414 245.081 101.729 244.227 101.729C243.694 101.729 243.246 101.585 242.883 101.297C242.521 101.009 242.243 100.598 242.051 100.065C241.87 99.521 241.779 98.8757 241.779 98.129C241.779 96.9984 241.971 96.1237 242.355 95.505C242.75 94.8757 243.374 94.561 244.227 94.561ZM244.227 95.745C243.865 95.745 243.598 95.9424 243.427 96.337C243.267 96.7317 243.187 97.329 243.187 98.129C243.187 98.929 243.267 99.5317 243.427 99.937C243.598 100.332 243.865 100.529 244.227 100.529C244.601 100.529 244.873 100.332 245.043 99.937C245.225 99.5424 245.315 98.9397 245.315 98.129C245.315 97.329 245.225 96.7317 245.043 96.337C244.873 95.9424 244.601 95.745 244.227 95.745ZM202.035 125.569V114.129H207.283C209.491 114.129 210.963 115.409 210.963 117.313C210.963 118.657 210.339 119.681 208.867 120.081V120.129C209.923 120.433 210.467 121.041 210.611 122.433C210.771 124.049 210.707 125.281 211.107 125.457V125.569H208.883C208.595 125.441 208.563 124.161 208.467 122.929C208.371 121.681 207.667 120.977 206.227 120.977H204.355V125.569H202.035ZM204.355 116.001V119.185H206.819C208.083 119.185 208.707 118.529 208.707 117.617C208.707 116.689 208.115 116.001 206.883 116.001H204.355ZM216.059 125.809C213.339 125.809 211.803 123.905 211.803 121.457C211.803 119.025 213.451 117.137 215.851 117.137C218.491 117.137 219.899 119.153 219.899 122.081H213.947C214.107 123.345 214.811 124.129 216.043 124.129C216.891 124.129 217.387 123.745 217.627 123.121H219.771C219.467 124.577 218.171 125.809 216.059 125.809ZM215.883 118.817C214.731 118.817 214.171 119.505 213.979 120.577H217.627C217.563 119.537 216.875 118.817 215.883 118.817ZM220.269 118.865V117.361H221.389V116.625C221.389 114.625 222.941 113.921 225.037 114.145V115.825C224.013 115.777 223.565 115.905 223.565 116.753V117.361H225.037V118.865H223.565V125.569H221.389V118.865H220.269ZM229.652 125.809C226.932 125.809 225.396 123.905 225.396 121.457C225.396 119.025 227.044 117.137 229.444 117.137C232.084 117.137 233.492 119.153 233.492 122.081H227.54C227.7 123.345 228.404 124.129 229.636 124.129C230.484 124.129 230.98 123.745 231.22 123.121H233.364C233.06 124.577 231.764 125.809 229.652 125.809ZM229.476 118.817C228.324 118.817 227.764 119.505 227.572 120.577H231.22C231.156 119.537 230.468 118.817 229.476 118.817ZM236.595 117.361V118.673H236.643C237.139 117.745 237.699 117.265 238.659 117.265C238.899 117.265 239.043 117.281 239.171 117.329V119.233H239.123C237.699 119.089 236.675 119.841 236.675 121.569V125.569H234.499V117.361H236.595ZM242.205 117.361V118.673H242.253C242.749 117.745 243.309 117.265 244.269 117.265C244.509 117.265 244.653 117.281 244.781 117.329V119.233H244.733C243.309 119.089 242.285 119.841 242.285 121.569V125.569H240.109V117.361H242.205ZM250.652 125.569C250.524 125.409 250.444 125.025 250.396 124.657H250.364C249.948 125.281 249.356 125.761 247.948 125.761C246.268 125.761 245.084 124.881 245.084 123.249C245.084 121.441 246.556 120.865 248.38 120.609C249.74 120.417 250.364 120.305 250.364 119.681C250.364 119.089 249.9 118.705 248.988 118.705C247.964 118.705 247.468 119.073 247.404 119.857H245.468C245.532 118.417 246.604 117.153 249.004 117.153C251.468 117.153 252.46 118.257 252.46 120.177V124.353C252.46 124.977 252.556 125.345 252.748 125.489V125.569H250.652ZM248.476 124.241C249.724 124.241 250.412 123.473 250.412 122.673V121.441C250.028 121.665 249.436 121.793 248.892 121.921C247.756 122.177 247.196 122.433 247.196 123.201C247.196 123.969 247.708 124.241 248.476 124.241ZM253.875 125.569V114.129H256.051V125.569H253.875ZM260.812 125.809C258.428 125.809 257.1 124.657 256.972 122.913H258.988C259.132 123.857 259.804 124.273 260.78 124.273C261.74 124.273 262.284 123.905 262.284 123.329C262.284 122.545 261.244 122.465 260.124 122.241C258.652 121.953 257.212 121.553 257.212 119.761C257.212 117.985 258.684 117.137 260.556 117.137C262.716 117.137 263.916 118.209 264.076 119.857H262.108C262.012 118.977 261.452 118.657 260.524 118.657C259.676 118.657 259.116 118.977 259.116 119.569C259.116 120.273 260.204 120.337 261.372 120.577C262.748 120.865 264.268 121.249 264.268 123.169C264.268 124.817 262.86 125.809 260.812 125.809Z" fill="white"/>
<path d="M169.784 189.417C166.952 189.417 165.496 187.849 165.464 185.449H167.544C167.624 186.761 168.2 187.673 169.704 187.673C170.92 187.673 171.64 187.017 171.64 185.897C171.64 184.841 170.968 184.201 169.624 184.201H168.952V182.553H169.576C170.616 182.553 171.352 182.025 171.352 181.097C171.352 180.233 170.76 179.657 169.8 179.657C168.552 179.657 167.944 180.473 167.896 181.609H165.816C165.896 179.449 167.256 177.993 169.8 177.993C172.088 177.993 173.56 179.129 173.56 180.953C173.56 182.185 172.776 182.905 171.688 183.257V183.289C173.08 183.625 173.912 184.521 173.912 186.041C173.912 188.313 172.04 189.417 169.784 189.417ZM178.926 189.417C176.494 189.417 174.718 188.137 174.51 186.009H176.654C176.846 187.081 177.742 187.593 178.878 187.593C180.126 187.593 180.91 186.697 180.91 185.529C180.91 184.233 180.03 183.513 178.878 183.513C178.046 183.513 177.406 183.833 177.086 184.201H174.99L176.046 178.217H182.51V180.025H177.566L177.15 182.393H177.182C177.662 181.977 178.446 181.705 179.454 181.705C181.39 181.705 183.166 183.161 183.166 185.529C183.166 187.817 181.326 189.417 178.926 189.417ZM186.688 177.593C187.51 177.593 188.128 177.908 188.544 178.537C188.971 179.156 189.184 180.031 189.184 181.161C189.184 182.292 188.982 183.177 188.576 183.817C188.182 184.447 187.552 184.761 186.688 184.761C186.166 184.761 185.718 184.617 185.344 184.329C184.982 184.041 184.71 183.631 184.528 183.097C184.347 182.553 184.256 181.908 184.256 181.161C184.256 180.031 184.448 179.156 184.832 178.537C185.227 177.908 185.846 177.593 186.688 177.593ZM186.688 178.777C186.336 178.777 186.075 178.98 185.904 179.385C185.734 179.78 185.648 180.372 185.648 181.161C185.648 181.961 185.734 182.564 185.904 182.969C186.075 183.375 186.336 183.577 186.688 183.577C187.062 183.577 187.339 183.38 187.52 182.985C187.702 182.58 187.792 181.972 187.792 181.161C187.792 180.372 187.702 179.78 187.52 179.385C187.339 178.98 187.062 178.777 186.688 178.777ZM194.24 177.753L187.904 189.177H186.48L192.816 177.753H194.24ZM193.984 182.169C194.528 182.169 194.982 182.313 195.344 182.601C195.718 182.879 196 183.284 196.192 183.817C196.384 184.34 196.48 184.98 196.48 185.737C196.48 186.868 196.278 187.753 195.872 188.393C195.467 189.023 194.838 189.337 193.984 189.337C193.451 189.337 193.003 189.193 192.64 188.905C192.278 188.617 192 188.207 191.808 187.673C191.627 187.129 191.536 186.484 191.536 185.737C191.536 184.607 191.728 183.732 192.112 183.113C192.507 182.484 193.131 182.169 193.984 182.169ZM193.984 183.353C193.622 183.353 193.355 183.551 193.184 183.945C193.024 184.34 192.944 184.937 192.944 185.737C192.944 186.537 193.024 187.14 193.184 187.545C193.355 187.94 193.622 188.137 193.984 188.137C194.358 188.137 194.63 187.94 194.8 187.545C194.982 187.151 195.072 186.548 195.072 185.737C195.072 184.937 194.982 184.34 194.8 183.945C194.63 183.551 194.358 183.353 193.984 183.353ZM161.544 213.433C158.44 213.433 156.68 212.057 156.6 209.641H158.872C159.032 211.017 159.816 211.561 161.448 211.561C162.632 211.561 163.672 211.145 163.672 210.089C163.672 208.969 162.584 208.745 160.84 208.345C158.792 207.881 156.92 207.337 156.92 204.953C156.92 202.697 158.76 201.529 161.304 201.529C163.88 201.529 165.544 202.793 165.72 205.097H163.496C163.368 203.945 162.472 203.369 161.288 203.369C160.04 203.369 159.224 203.897 159.224 204.713C159.224 205.641 160.024 205.913 161.72 206.281C164.072 206.793 165.992 207.353 165.992 209.817C165.992 212.137 164.12 213.433 161.544 213.433ZM171.058 213.417C168.338 213.417 166.802 211.513 166.802 209.065C166.802 206.633 168.45 204.745 170.85 204.745C173.49 204.745 174.898 206.761 174.898 209.689H168.946C169.106 210.953 169.81 211.737 171.042 211.737C171.89 211.737 172.386 211.353 172.626 210.729H174.77C174.466 212.185 173.17 213.417 171.058 213.417ZM170.882 206.425C169.73 206.425 169.17 207.113 168.978 208.185H172.626C172.562 207.145 171.874 206.425 170.882 206.425ZM181.073 213.177C180.945 213.017 180.865 212.633 180.817 212.265H180.785C180.369 212.889 179.777 213.369 178.369 213.369C176.689 213.369 175.505 212.489 175.505 210.857C175.505 209.049 176.977 208.473 178.801 208.217C180.161 208.025 180.785 207.913 180.785 207.289C180.785 206.697 180.321 206.313 179.409 206.313C178.385 206.313 177.889 206.681 177.825 207.465H175.889C175.953 206.025 177.025 204.761 179.425 204.761C181.889 204.761 182.881 205.865 182.881 207.785V211.961C182.881 212.585 182.977 212.953 183.169 213.097V213.177H181.073ZM178.897 211.849C180.145 211.849 180.833 211.081 180.833 210.281V209.049C180.449 209.273 179.857 209.401 179.313 209.529C178.177 209.785 177.617 210.041 177.617 210.809C177.617 211.577 178.129 211.849 178.897 211.849ZM186.36 204.969V206.281H186.408C186.904 205.353 187.464 204.873 188.424 204.873C188.664 204.873 188.808 204.889 188.936 204.937V206.841H188.888C187.464 206.697 186.44 207.449 186.44 209.177V213.177H184.264V204.969H186.36ZM193.447 213.417C190.855 213.417 189.239 211.529 189.239 209.081C189.239 206.633 190.839 204.745 193.335 204.745C195.463 204.745 196.775 205.977 197.063 207.753H194.935C194.791 207.033 194.231 206.489 193.431 206.489C192.119 206.489 191.447 207.497 191.447 209.081C191.447 210.633 192.071 211.673 193.399 211.673C194.279 211.673 194.903 211.209 195.047 210.281H197.143C196.999 212.025 195.639 213.417 193.447 213.417ZM200.268 201.737V206.041H200.316C200.908 205.177 201.58 204.745 202.7 204.745C204.396 204.745 205.532 206.025 205.532 207.817V213.177H203.356V208.137C203.356 207.257 202.844 206.633 201.932 206.633C200.972 206.633 200.268 207.401 200.268 208.521V213.177H198.092V201.737H200.268ZM153.847 237.177V225.737H162.263V227.689H156.167V230.249H161.511V232.153H156.167V235.241H162.311V237.177H153.847ZM165.705 228.969V230.089H165.753C166.313 229.209 167.065 228.745 168.185 228.745C169.881 228.745 171.017 230.025 171.017 231.817V237.177H168.841V232.137C168.841 231.257 168.329 230.633 167.417 230.633C166.457 230.633 165.753 231.401 165.753 232.521V237.177H163.577V228.969H165.705ZM175.974 239.977C173.734 239.977 172.358 239.017 172.134 237.417H174.294C174.47 237.929 174.934 238.329 175.942 238.329C177.174 238.329 177.766 237.737 177.766 236.617V235.721H177.718C177.238 236.265 176.614 236.681 175.574 236.681C173.75 236.681 171.958 235.241 171.958 232.761C171.958 230.313 173.43 228.745 175.51 228.745C176.534 228.745 177.286 229.145 177.782 229.833H177.814V228.969H179.91V236.553C179.91 237.705 179.542 238.489 178.934 239.049C178.246 239.689 177.19 239.977 175.974 239.977ZM175.942 234.937C177.318 234.937 177.878 233.929 177.878 232.713C177.878 231.513 177.238 230.489 175.926 230.489C174.822 230.489 174.086 231.353 174.086 232.729C174.086 234.121 174.822 234.937 175.942 234.937ZM181.311 237.177V228.969H183.487V237.177H181.311ZM181.311 227.689V225.737H183.487V227.689H181.311ZM187.017 228.969V230.089H187.065C187.625 229.209 188.377 228.745 189.497 228.745C191.193 228.745 192.329 230.025 192.329 231.817V237.177H190.153V232.137C190.153 231.257 189.641 230.633 188.729 230.633C187.769 230.633 187.065 231.401 187.065 232.521V237.177H184.889V228.969H187.017ZM197.527 237.417C194.807 237.417 193.271 235.513 193.271 233.065C193.271 230.633 194.919 228.745 197.319 228.745C199.959 228.745 201.367 230.761 201.367 233.689H195.415C195.575 234.953 196.279 235.737 197.511 235.737C198.359 235.737 198.855 235.353 199.095 234.729H201.239C200.935 236.185 199.639 237.417 197.527 237.417ZM197.351 230.425C196.199 230.425 195.639 231.113 195.447 232.185H199.095C199.031 231.145 198.343 230.425 197.351 230.425ZM205.702 237.417C203.318 237.417 201.99 236.265 201.862 234.521H203.878C204.022 235.465 204.694 235.881 205.67 235.881C206.63 235.881 207.174 235.513 207.174 234.937C207.174 234.153 206.134 234.073 205.014 233.849C203.542 233.561 202.102 233.161 202.102 231.369C202.102 229.593 203.574 228.745 205.446 228.745C207.606 228.745 208.806 229.817 208.966 231.465H206.998C206.902 230.585 206.342 230.265 205.414 230.265C204.566 230.265 204.006 230.585 204.006 231.177C204.006 231.881 205.094 231.945 206.262 232.185C207.638 232.473 209.158 232.857 209.158 234.777C209.158 236.425 207.75 237.417 205.702 237.417Z" fill="white"/>
</svg>
