<svg width="440" height="277" viewBox="0 0 440 277" fill="none" xmlns="http://www.w3.org/2000/svg">
<path d="M37.1118 15H438.884" stroke="#8C8C8C" stroke-opacity="0.72" stroke-dasharray="2 20"/>
<path d="M37.1118 73H438.884" stroke="#8C8C8C" stroke-opacity="0.72" stroke-dasharray="2 20"/>
<path d="M37.1118 131H438.884" stroke="#8C8C8C" stroke-opacity="0.72" stroke-dasharray="2 20"/>
<path d="M37.1118 189H438.884" stroke="#8C8C8C" stroke-opacity="0.72" stroke-dasharray="2 20"/>
<path d="M37.1118 247H438.884" stroke="#8C8C8C" stroke-opacity="0.72" stroke-dasharray="2 20"/>
<path d="M55.9255 272.942C53.9415 272.942 52.7735 271.934 52.7735 269.79V269.182H53.5895V269.758C53.5895 271.518 54.4055 272.19 55.9415 272.19C57.2215 272.19 58.0055 271.518 58.0055 270.046V261.294H58.8375V270.11C58.8375 271.694 57.9095 272.942 55.9255 272.942ZM67.3969 272.862C66.7569 272.862 66.3089 272.51 66.3089 271.742V271.454H66.2609C65.7969 272.11 64.9649 272.942 63.2689 272.942C61.7489 272.942 60.6289 272.158 60.6289 270.638C60.6289 268.67 62.1649 268.27 63.8929 268.094C65.8449 267.902 66.2929 267.806 66.2929 267.038V266.75C66.2929 265.502 65.5569 264.958 64.2129 264.958C62.6609 264.958 61.8289 265.598 61.7169 266.814H60.9169C61.0769 265.214 62.1489 264.286 64.2129 264.286C66.0529 264.286 67.0769 265.102 67.0769 266.798V271.662C67.0769 272.11 67.3169 272.238 67.6049 272.238C67.7169 272.238 67.8449 272.206 67.9889 272.158H68.0369V272.734C67.9089 272.798 67.7169 272.862 67.3969 272.862ZM63.3489 272.286C65.2209 272.286 66.2929 271.038 66.2929 269.79V268.254C65.7169 268.542 64.8369 268.654 63.9889 268.75C62.5329 268.91 61.4289 269.102 61.4289 270.67C61.4289 271.838 62.2929 272.286 63.3489 272.286ZM70.1999 264.462V265.854H70.2319C70.7759 264.974 71.7039 264.302 73.1119 264.302C74.5199 264.302 75.6399 265.182 75.6399 266.83V272.734H74.8559V266.91C74.8559 265.55 74.1199 264.974 72.9679 264.974C71.4959 264.974 70.1999 266.014 70.1999 267.39V272.734H69.4159V264.462H70.1999Z" fill="white" fill-opacity="0.6"/>
<path d="M105.413 272.734V261.294H112.677V262.03H106.245V266.43H111.797V267.15H106.245V272.734H105.413ZM120.311 268.686H114.055C114.071 270.67 114.967 272.254 116.999 272.254C118.487 272.254 119.175 271.39 119.511 270.27H120.263C119.927 271.806 118.839 272.942 116.999 272.942C114.567 272.942 113.255 271.15 113.255 268.606C113.255 266.062 114.679 264.286 116.935 264.286C117.831 264.286 118.567 264.574 119.111 265.086C120.023 265.934 120.327 267.118 120.311 268.686ZM119.511 268.046C119.463 266.414 118.759 264.958 116.935 264.958C115.143 264.958 114.231 266.302 114.071 268.046H119.511ZM125.642 272.942C124.266 272.942 123.434 272.382 122.81 271.374H122.778V272.734H121.994V261.294H122.778V266.046H122.81C123.37 265.006 124.314 264.286 125.706 264.286C127.626 264.286 129.05 265.87 129.05 268.622C129.05 271.086 127.77 272.942 125.642 272.942ZM125.61 272.286C127.386 272.286 128.25 270.606 128.25 268.638C128.25 266.43 127.29 264.958 125.594 264.958C123.754 264.958 122.698 266.542 122.698 268.638C122.698 270.83 123.738 272.286 125.61 272.286Z" fill="white" fill-opacity="0.6"/>
<path d="M152.104 272.734V261.294H153.304L157.416 271.598H157.448L161.432 261.294H162.68V272.734H161.864V262.398H161.832C161.832 262.398 161.528 263.31 161.256 264.014L157.832 272.734H157L153.512 264.014C153.272 263.406 152.936 262.398 152.936 262.398H152.904V272.734H152.104ZM171.29 272.862C170.65 272.862 170.202 272.51 170.202 271.742V271.454H170.154C169.69 272.11 168.858 272.942 167.162 272.942C165.642 272.942 164.522 272.158 164.522 270.638C164.522 268.67 166.058 268.27 167.786 268.094C169.738 267.902 170.186 267.806 170.186 267.038V266.75C170.186 265.502 169.45 264.958 168.106 264.958C166.554 264.958 165.722 265.598 165.61 266.814H164.81C164.97 265.214 166.042 264.286 168.106 264.286C169.946 264.286 170.97 265.102 170.97 266.798V271.662C170.97 272.11 171.21 272.238 171.498 272.238C171.61 272.238 171.738 272.206 171.882 272.158H171.93V272.734C171.802 272.798 171.61 272.862 171.29 272.862ZM167.242 272.286C169.114 272.286 170.186 271.038 170.186 269.79V268.254C169.61 268.542 168.73 268.654 167.882 268.75C166.426 268.91 165.322 269.102 165.322 270.67C165.322 271.838 166.186 272.286 167.242 272.286ZM174.093 264.462V266.094H174.125C174.413 265.518 174.797 265.07 175.293 264.782C175.789 264.494 176.205 264.414 176.813 264.414V265.198C176.349 265.182 175.981 265.246 175.645 265.39C174.765 265.79 174.093 266.734 174.093 267.95V272.734H173.309V264.462H174.093ZM181.067 272.942C178.683 272.942 177.467 271.102 177.467 268.606C177.467 266.11 178.715 264.286 181.083 264.286C182.811 264.286 184.011 265.182 184.267 266.846H183.499C183.227 265.534 182.379 264.958 181.083 264.958C179.083 264.958 178.267 266.622 178.267 268.606C178.267 270.59 179.099 272.254 181.067 272.254C182.507 272.254 183.451 271.294 183.627 269.934H184.363C184.155 271.726 182.971 272.942 181.067 272.942ZM186.758 261.294V265.854H186.79C187.334 264.974 188.262 264.302 189.67 264.302C191.078 264.302 192.198 265.182 192.198 266.83V272.734H191.414V266.91C191.414 265.55 190.678 264.974 189.526 264.974C188.054 264.974 186.758 266.014 186.758 267.39V272.734H185.974V261.294H186.758Z" fill="white" fill-opacity="0.6"/>
<path d="M210.208 272.734L214.624 261.294H215.568L220 272.734H219.136L217.728 269.07H212.464L211.056 272.734H210.208ZM214.48 263.822L212.736 268.366H217.456L215.728 263.822C215.472 263.166 215.104 262.126 215.104 262.126H215.072C215.072 262.126 214.752 263.102 214.48 263.822ZM221.376 275.39V264.462H222.16V266.046H222.192C222.752 264.99 223.696 264.286 225.088 264.286C227.008 264.286 228.432 265.838 228.432 268.59C228.432 271.054 227.152 272.91 225.024 272.91C223.648 272.91 222.784 272.318 222.192 271.374H222.16V275.39H221.376ZM224.992 272.254C226.768 272.254 227.632 270.574 227.632 268.606C227.632 266.398 226.672 264.958 224.976 264.958C223.136 264.958 222.08 266.542 222.08 268.638C222.08 270.83 223.12 272.254 224.992 272.254ZM230.89 264.462V266.094H230.922C231.21 265.518 231.594 265.07 232.09 264.782C232.586 264.494 233.002 264.414 233.61 264.414V265.198C233.146 265.182 232.778 265.246 232.442 265.39C231.562 265.79 230.89 266.734 230.89 267.95V272.734H230.106V264.462H230.89ZM235.197 272.734V264.462H235.981V272.734H235.197ZM235.197 262.574V261.294H235.981V262.574H235.197ZM238.161 272.734V261.294H238.945V272.734H238.161Z" fill="white" fill-opacity="0.6"/>
<path d="M266.104 272.734V261.294H267.304L271.416 271.598H271.448L275.432 261.294H276.68V272.734H275.864V262.398H275.832C275.832 262.398 275.528 263.31 275.256 264.014L271.832 272.734H271L267.512 264.014C267.272 263.406 266.936 262.398 266.936 262.398H266.904V272.734H266.104ZM285.29 272.862C284.65 272.862 284.202 272.51 284.202 271.742V271.454H284.154C283.69 272.11 282.858 272.942 281.162 272.942C279.642 272.942 278.522 272.158 278.522 270.638C278.522 268.67 280.058 268.27 281.786 268.094C283.738 267.902 284.186 267.806 284.186 267.038V266.75C284.186 265.502 283.45 264.958 282.106 264.958C280.554 264.958 279.722 265.598 279.61 266.814H278.81C278.97 265.214 280.042 264.286 282.106 264.286C283.946 264.286 284.97 265.102 284.97 266.798V271.662C284.97 272.11 285.21 272.238 285.498 272.238C285.61 272.238 285.738 272.206 285.882 272.158H285.93V272.734C285.802 272.798 285.61 272.862 285.29 272.862ZM281.242 272.286C283.114 272.286 284.186 271.038 284.186 269.79V268.254C283.61 268.542 282.73 268.654 281.882 268.75C280.426 268.91 279.322 269.102 279.322 270.67C279.322 271.838 280.186 272.286 281.242 272.286ZM287.639 275.47C287.351 275.47 287.191 275.422 287.015 275.374V274.67H287.047C287.175 274.702 287.351 274.75 287.703 274.75C288.391 274.75 288.887 274.43 289.191 273.55L289.431 272.862L286.263 264.462H287.079L289.095 269.934C289.399 270.75 289.815 271.998 289.815 271.998H289.847C289.847 271.998 290.231 270.766 290.519 269.934L292.439 264.462H293.239L289.911 273.726C289.431 275.07 288.759 275.47 287.639 275.47Z" fill="white" fill-opacity="0.6"/>
<path d="M325.616 272.942C323.632 272.942 322.464 271.934 322.464 269.79V269.182H323.28V269.758C323.28 271.518 324.096 272.19 325.632 272.19C326.912 272.19 327.696 271.518 327.696 270.046V261.294H328.528V270.11C328.528 271.694 327.6 272.942 325.616 272.942ZM336.815 272.734H336.031V271.47H335.999C335.455 272.27 334.735 272.926 333.343 272.926C331.823 272.926 330.687 272.014 330.687 270.366V264.462H331.471V270.286C331.471 271.646 332.255 272.254 333.487 272.254C334.943 272.254 336.031 271.15 336.031 269.694V264.462H336.815V272.734ZM339.671 264.462V265.854H339.703C340.247 264.974 341.175 264.302 342.583 264.302C343.991 264.302 345.111 265.182 345.111 266.83V272.734H344.327V266.91C344.327 265.55 343.591 264.974 342.439 264.974C340.967 264.974 339.671 266.014 339.671 267.39V272.734H338.887V264.462H339.671ZM353.789 268.686H347.533C347.549 270.67 348.445 272.254 350.477 272.254C351.965 272.254 352.653 271.39 352.989 270.27H353.741C353.405 271.806 352.317 272.942 350.477 272.942C348.045 272.942 346.733 271.15 346.733 268.606C346.733 266.062 348.157 264.286 350.413 264.286C351.309 264.286 352.045 264.574 352.589 265.086C353.501 265.934 353.805 267.118 353.789 268.686ZM352.989 268.046C352.941 266.414 352.237 264.958 350.413 264.958C348.621 264.958 347.709 266.302 347.549 268.046H352.989Z" fill="white" fill-opacity="0.6"/>
<path d="M386.616 272.942C384.632 272.942 383.464 271.934 383.464 269.79V269.182H384.28V269.758C384.28 271.518 385.096 272.19 386.632 272.19C387.912 272.19 388.696 271.518 388.696 270.046V261.294H389.528V270.11C389.528 271.694 388.6 272.942 386.616 272.942ZM397.815 272.734H397.031V271.47H396.999C396.455 272.27 395.735 272.926 394.343 272.926C392.823 272.926 391.687 272.014 391.687 270.366V264.462H392.471V270.286C392.471 271.646 393.255 272.254 394.487 272.254C395.943 272.254 397.031 271.15 397.031 269.694V264.462H397.815V272.734ZM399.935 272.734V261.294H400.719V272.734H399.935ZM403.588 275.47C403.3 275.47 403.14 275.422 402.964 275.374V274.67H402.996C403.124 274.702 403.3 274.75 403.652 274.75C404.34 274.75 404.836 274.43 405.14 273.55L405.38 272.862L402.212 264.462H403.028L405.044 269.934C405.348 270.75 405.764 271.998 405.764 271.998H405.796C405.796 271.998 406.18 270.766 406.468 269.934L408.388 264.462H409.188L405.86 273.726C405.38 275.07 404.708 275.47 403.588 275.47Z" fill="white" fill-opacity="0.6"/>
<path d="M4.768 247V238.584H2.528V238.024C4.304 237.912 4.8 237.608 4.992 235.976H5.584V247H4.768ZM11.9909 247.208C9.46288 247.208 8.07088 245 8.07088 241.512C8.07088 237.96 9.59088 235.816 12.0069 235.816C14.4069 235.816 15.9109 237.928 15.9109 241.512C15.9109 245 14.5349 247.208 11.9909 247.208ZM12.0069 246.488C13.9909 246.488 15.0629 244.632 15.0629 241.512C15.0629 238.456 13.9429 236.52 12.0069 236.52C10.0389 236.52 8.91888 238.392 8.91888 241.512C8.91888 244.568 10.0389 246.488 12.0069 246.488ZM20.0648 235.416C20.8221 235.416 21.3928 235.725 21.7768 236.344C22.1608 236.952 22.3528 237.832 22.3528 238.984C22.3528 240.157 22.1554 241.053 21.7608 241.672C21.3768 242.28 20.8061 242.584 20.0488 242.584C19.5688 242.584 19.1581 242.445 18.8168 242.168C18.4754 241.891 18.2194 241.485 18.0488 240.952C17.8781 240.408 17.7928 239.752 17.7928 238.984C17.7928 237.821 17.9848 236.936 18.3688 236.328C18.7528 235.72 19.3181 235.416 20.0648 235.416ZM20.0648 236.104C19.5848 236.104 19.2168 236.344 18.9608 236.824C18.7154 237.304 18.5928 238.024 18.5928 238.984C18.5928 239.944 18.7154 240.669 18.9608 241.16C19.2061 241.64 19.5688 241.88 20.0488 241.88C20.5608 241.88 20.9394 241.635 21.1848 241.144C21.4301 240.653 21.5528 239.933 21.5528 238.984C21.5528 238.045 21.4301 237.331 21.1848 236.84C20.9501 236.349 20.5768 236.104 20.0648 236.104ZM27.0088 235.576L20.6728 247H19.8408L26.1768 235.576H27.0088ZM26.7688 239.992C27.2701 239.992 27.6861 240.131 28.0168 240.408C28.3581 240.685 28.6141 241.091 28.7848 241.624C28.9661 242.147 29.0568 242.792 29.0568 243.56C29.0568 244.733 28.8594 245.629 28.4648 246.248C28.0808 246.856 27.5101 247.16 26.7528 247.16C26.2621 247.16 25.8461 247.021 25.5048 246.744C25.1741 246.467 24.9234 246.061 24.7528 245.528C24.5821 244.984 24.4968 244.328 24.4968 243.56C24.4968 242.397 24.6888 241.512 25.0728 240.904C25.4568 240.296 26.0221 239.992 26.7688 239.992ZM26.7688 240.696C26.2888 240.696 25.9208 240.936 25.6648 241.416C25.4194 241.885 25.2968 242.6 25.2968 243.56C25.2968 244.52 25.4194 245.245 25.6648 245.736C25.9101 246.216 26.2728 246.456 26.7528 246.456C27.2541 246.456 27.6274 246.216 27.8728 245.736C28.1288 245.245 28.2568 244.52 28.2568 243.56C28.2568 242.621 28.1341 241.912 27.8888 241.432C27.6541 240.941 27.2808 240.696 26.7688 240.696Z" fill="white" fill-opacity="0.6"/>
<path d="M1.012 189C1.012 186.264 2.804 185.192 4.42 184.184C5.94 183.24 7.044 182.728 7.044 180.936C7.044 179.368 6.116 178.536 4.708 178.536C3.156 178.536 2.148 179.48 2.084 181.4H1.268C1.284 179.032 2.82 177.816 4.724 177.816C6.676 177.816 7.892 179.192 7.892 180.904C7.892 183.128 6.228 183.944 4.708 184.888C3.396 185.704 2.084 186.52 1.908 188.248H7.796V189H1.012ZM13.3815 189.208C10.8535 189.208 9.4615 187 9.4615 183.512C9.4615 179.96 10.9815 177.816 13.3975 177.816C15.7975 177.816 17.3015 179.928 17.3015 183.512C17.3015 187 15.9255 189.208 13.3815 189.208ZM13.3975 188.488C15.3815 188.488 16.4535 186.632 16.4535 183.512C16.4535 180.456 15.3335 178.52 13.3975 178.52C11.4295 178.52 10.3095 180.392 10.3095 183.512C10.3095 186.568 11.4295 188.488 13.3975 188.488ZM21.4554 177.416C22.2127 177.416 22.7834 177.725 23.1674 178.344C23.5514 178.952 23.7434 179.832 23.7434 180.984C23.7434 182.157 23.546 183.053 23.1514 183.672C22.7674 184.28 22.1967 184.584 21.4394 184.584C20.9594 184.584 20.5487 184.445 20.2074 184.168C19.866 183.891 19.61 183.485 19.4394 182.952C19.2687 182.408 19.1834 181.752 19.1834 180.984C19.1834 179.821 19.3754 178.936 19.7594 178.328C20.1434 177.72 20.7087 177.416 21.4554 177.416ZM21.4554 178.104C20.9754 178.104 20.6074 178.344 20.3514 178.824C20.106 179.304 19.9834 180.024 19.9834 180.984C19.9834 181.944 20.106 182.669 20.3514 183.16C20.5967 183.64 20.9594 183.88 21.4394 183.88C21.9514 183.88 22.33 183.635 22.5754 183.144C22.8207 182.653 22.9434 181.933 22.9434 180.984C22.9434 180.045 22.8207 179.331 22.5754 178.84C22.3407 178.349 21.9674 178.104 21.4554 178.104ZM28.3994 177.576L22.0634 189H21.2314L27.5674 177.576H28.3994ZM28.1594 181.992C28.6607 181.992 29.0767 182.131 29.4074 182.408C29.7487 182.685 30.0047 183.091 30.1754 183.624C30.3567 184.147 30.4474 184.792 30.4474 185.56C30.4474 186.733 30.25 187.629 29.8554 188.248C29.4714 188.856 28.9007 189.16 28.1434 189.16C27.6527 189.16 27.2367 189.021 26.8954 188.744C26.5647 188.467 26.314 188.061 26.1434 187.528C25.9727 186.984 25.8874 186.328 25.8874 185.56C25.8874 184.397 26.0794 183.512 26.4634 182.904C26.8474 182.296 27.4127 181.992 28.1594 181.992ZM28.1594 182.696C27.6794 182.696 27.3114 182.936 27.0554 183.416C26.81 183.885 26.6874 184.6 26.6874 185.56C26.6874 186.52 26.81 187.245 27.0554 187.736C27.3007 188.216 27.6634 188.456 28.1434 188.456C28.6447 188.456 29.018 188.216 29.2634 187.736C29.5194 187.245 29.6474 186.52 29.6474 185.56C29.6474 184.621 29.5247 183.912 29.2794 183.432C29.0447 182.941 28.6714 182.696 28.1594 182.696Z" fill="white" fill-opacity="0.6"/>
<path d="M4.516 131.208C2.484 131.208 0.948 129.848 0.948 127.752H1.796C1.876 129.512 2.98 130.44 4.532 130.44C6.26 130.44 7.156 129.416 7.156 127.976C7.156 126.472 6.196 125.56 4.58 125.56H3.764V124.84H4.564C5.924 124.84 6.772 123.992 6.772 122.712C6.772 121.304 5.844 120.52 4.564 120.52C2.98 120.52 2.116 121.72 2.116 123.208H1.284C1.3 121.272 2.484 119.816 4.596 119.816C6.292 119.816 7.604 120.92 7.604 122.68C7.604 123.944 6.98 124.728 6.068 125.112V125.16C7.364 125.64 8.004 126.632 8.004 128.024C8.004 129.96 6.644 131.208 4.516 131.208ZM13.4752 131.208C10.9472 131.208 9.55525 129 9.55525 125.512C9.55525 121.96 11.0752 119.816 13.4912 119.816C15.8912 119.816 17.3953 121.928 17.3953 125.512C17.3953 129 16.0192 131.208 13.4752 131.208ZM13.4912 130.488C15.4752 130.488 16.5472 128.632 16.5472 125.512C16.5472 122.456 15.4272 120.52 13.4912 120.52C11.5232 120.52 10.4032 122.392 10.4032 125.512C10.4032 128.568 11.5232 130.488 13.4912 130.488ZM21.5491 119.416C22.3065 119.416 22.8771 119.725 23.2611 120.344C23.6451 120.952 23.8371 121.832 23.8371 122.984C23.8371 124.157 23.6398 125.053 23.2451 125.672C22.8611 126.28 22.2905 126.584 21.5331 126.584C21.0531 126.584 20.6425 126.445 20.3011 126.168C19.9598 125.891 19.7038 125.485 19.5331 124.952C19.3625 124.408 19.2771 123.752 19.2771 122.984C19.2771 121.821 19.4691 120.936 19.8531 120.328C20.2371 119.72 20.8025 119.416 21.5491 119.416ZM21.5491 120.104C21.0691 120.104 20.7011 120.344 20.4451 120.824C20.1998 121.304 20.0771 122.024 20.0771 122.984C20.0771 123.944 20.1998 124.669 20.4451 125.16C20.6905 125.64 21.0531 125.88 21.5331 125.88C22.0451 125.88 22.4238 125.635 22.6691 125.144C22.9145 124.653 23.0371 123.933 23.0371 122.984C23.0371 122.045 22.9145 121.331 22.6691 120.84C22.4345 120.349 22.0611 120.104 21.5491 120.104ZM28.4931 119.576L22.1571 131H21.3251L27.6611 119.576H28.4931ZM28.2531 123.992C28.7545 123.992 29.1705 124.131 29.5011 124.408C29.8425 124.685 30.0985 125.091 30.2691 125.624C30.4505 126.147 30.5411 126.792 30.5411 127.56C30.5411 128.733 30.3438 129.629 29.9491 130.248C29.5651 130.856 28.9945 131.16 28.2371 131.16C27.7465 131.16 27.3305 131.021 26.9891 130.744C26.6585 130.467 26.4078 130.061 26.2371 129.528C26.0665 128.984 25.9811 128.328 25.9811 127.56C25.9811 126.397 26.1731 125.512 26.5571 124.904C26.9411 124.296 27.5065 123.992 28.2531 123.992ZM28.2531 124.696C27.7731 124.696 27.4051 124.936 27.1491 125.416C26.9038 125.885 26.7811 126.6 26.7811 127.56C26.7811 128.52 26.9038 129.245 27.1491 129.736C27.3945 130.216 27.7571 130.456 28.2371 130.456C28.7385 130.456 29.1118 130.216 29.3571 129.736C29.6131 129.245 29.7411 128.52 29.7411 127.56C29.7411 126.621 29.6185 125.912 29.3731 125.432C29.1385 124.941 28.7651 124.696 28.2531 124.696Z" fill="white" fill-opacity="0.6"/>
<path d="M5.44 70.4296V67.5496H0.352V66.7496L5.52 59.3576H6.256V66.8296H7.872V67.5496H6.256V70.4296H5.44ZM1.232 66.7816V66.8296H5.44V60.8136H5.408L1.232 66.7816ZM13.2252 70.6376C10.6972 70.6376 9.30525 68.4296 9.30525 64.9416C9.30525 61.3896 10.8252 59.2456 13.2412 59.2456C15.6412 59.2456 17.1453 61.3576 17.1453 64.9416C17.1453 68.4296 15.7692 70.6376 13.2252 70.6376ZM13.2412 69.9176C15.2252 69.9176 16.2972 68.0616 16.2972 64.9416C16.2972 61.8856 15.1772 59.9496 13.2412 59.9496C11.2732 59.9496 10.1532 61.8216 10.1532 64.9416C10.1532 67.9976 11.2732 69.9176 13.2412 69.9176ZM21.2991 58.8456C22.0565 58.8456 22.6271 59.1549 23.0111 59.7736C23.3951 60.3816 23.5871 61.2616 23.5871 62.4136C23.5871 63.5869 23.3898 64.4829 22.9951 65.1016C22.6111 65.7096 22.0405 66.0136 21.2831 66.0136C20.8031 66.0136 20.3925 65.8749 20.0511 65.5976C19.7098 65.3202 19.4538 64.9149 19.2831 64.3816C19.1125 63.8376 19.0271 63.1816 19.0271 62.4136C19.0271 61.2509 19.2191 60.3656 19.6031 59.7576C19.9871 59.1496 20.5525 58.8456 21.2991 58.8456ZM21.2991 59.5336C20.8191 59.5336 20.4511 59.7736 20.1951 60.2536C19.9498 60.7336 19.8271 61.4536 19.8271 62.4136C19.8271 63.3736 19.9498 64.0989 20.1951 64.5896C20.4405 65.0696 20.8031 65.3096 21.2831 65.3096C21.7951 65.3096 22.1738 65.0642 22.4191 64.5736C22.6645 64.0829 22.7871 63.3629 22.7871 62.4136C22.7871 61.4749 22.6645 60.7602 22.4191 60.2696C22.1845 59.7789 21.8111 59.5336 21.2991 59.5336ZM28.2431 59.0056L21.9071 70.4296H21.0751L27.4111 59.0056H28.2431ZM28.0031 63.4216C28.5045 63.4216 28.9205 63.5602 29.2511 63.8376C29.5925 64.1149 29.8485 64.5202 30.0191 65.0536C30.2005 65.5762 30.2911 66.2216 30.2911 66.9896C30.2911 68.1629 30.0938 69.0589 29.6991 69.6776C29.3151 70.2856 28.7445 70.5896 27.9871 70.5896C27.4965 70.5896 27.0805 70.4509 26.7391 70.1736C26.4085 69.8962 26.1578 69.4909 25.9871 68.9576C25.8165 68.4136 25.7311 67.7576 25.7311 66.9896C25.7311 65.8269 25.9231 64.9416 26.3071 64.3336C26.6911 63.7256 27.2565 63.4216 28.0031 63.4216ZM28.0031 64.1256C27.5231 64.1256 27.1551 64.3656 26.8991 64.8456C26.6538 65.3149 26.5311 66.0296 26.5311 66.9896C26.5311 67.9496 26.6538 68.6749 26.8991 69.1656C27.1445 69.6456 27.5071 69.8856 27.9871 69.8856C28.4885 69.8856 28.8618 69.6456 29.1071 69.1656C29.3631 68.6749 29.4911 67.9496 29.4911 66.9896C29.4911 66.0509 29.3685 65.3416 29.1231 64.8616C28.8885 64.3709 28.5151 64.1256 28.0031 64.1256Z" fill="white" fill-opacity="0.6"/>
<path d="M4.292 15.208C2.356 15.208 0.964 13.944 0.948 12.184H1.764C1.94 13.56 2.676 14.44 4.276 14.44C5.956 14.44 6.868 13.224 6.868 11.496C6.868 9.768 5.876 8.712 4.388 8.712C3.108 8.712 2.42 9.208 2.02 9.832H1.236L2.036 4.04H7.252V4.776H2.676L2.132 8.824H2.164C2.756 8.296 3.396 7.976 4.532 7.976C6.18 7.976 7.716 9.16 7.716 11.528C7.716 13.656 6.404 15.208 4.292 15.208ZM13.194 15.208C10.666 15.208 9.274 13 9.274 9.512C9.274 5.96 10.794 3.816 13.21 3.816C15.61 3.816 17.114 5.928 17.114 9.512C17.114 13 15.738 15.208 13.194 15.208ZM13.21 14.488C15.194 14.488 16.266 12.632 16.266 9.512C16.266 6.456 15.146 4.52 13.21 4.52C11.242 4.52 10.122 6.392 10.122 9.512C10.122 12.568 11.242 14.488 13.21 14.488ZM21.2679 3.416C22.0252 3.416 22.5959 3.72533 22.9799 4.344C23.3639 4.952 23.5559 5.832 23.5559 6.984C23.5559 8.15733 23.3585 9.05333 22.9639 9.672C22.5799 10.28 22.0092 10.584 21.2519 10.584C20.7719 10.584 20.3612 10.4453 20.0199 10.168C19.6785 9.89067 19.4225 9.48533 19.2519 8.952C19.0812 8.408 18.9959 7.752 18.9959 6.984C18.9959 5.82133 19.1879 4.936 19.5719 4.328C19.9559 3.72 20.5212 3.416 21.2679 3.416ZM21.2679 4.104C20.7879 4.104 20.4199 4.344 20.1639 4.824C19.9185 5.304 19.7959 6.024 19.7959 6.984C19.7959 7.944 19.9185 8.66933 20.1639 9.16C20.4092 9.64 20.7719 9.88 21.2519 9.88C21.7639 9.88 22.1425 9.63467 22.3879 9.144C22.6332 8.65333 22.7559 7.93333 22.7559 6.984C22.7559 6.04533 22.6332 5.33067 22.3879 4.84C22.1532 4.34933 21.7799 4.104 21.2679 4.104ZM28.2119 3.576L21.8759 15H21.0439L27.3799 3.576H28.2119ZM27.9719 7.992C28.4732 7.992 28.8892 8.13067 29.2199 8.408C29.5612 8.68533 29.8172 9.09067 29.9879 9.624C30.1692 10.1467 30.2599 10.792 30.2599 11.56C30.2599 12.7333 30.0625 13.6293 29.6679 14.248C29.2839 14.856 28.7132 15.16 27.9559 15.16C27.4652 15.16 27.0492 15.0213 26.7079 14.744C26.3772 14.4667 26.1265 14.0613 25.9559 13.528C25.7852 12.984 25.6999 12.328 25.6999 11.56C25.6999 10.3973 25.8919 9.512 26.2759 8.904C26.6599 8.296 27.2252 7.992 27.9719 7.992ZM27.9719 8.696C27.4919 8.696 27.1239 8.936 26.8679 9.416C26.6225 9.88533 26.4999 10.6 26.4999 11.56C26.4999 12.52 26.6225 13.2453 26.8679 13.736C27.1132 14.216 27.4759 14.456 27.9559 14.456C28.4572 14.456 28.8305 14.216 29.0759 13.736C29.3319 13.2453 29.4599 12.52 29.4599 11.56C29.4599 10.6213 29.3372 9.912 29.0919 9.432C28.8572 8.94133 28.4839 8.696 27.9719 8.696Z" fill="white" fill-opacity="0.6"/>
<rect x="49.8239" y="182.114" width="35.4763" height="64.8861" rx="17.7382" fill="#FAE1C0"/>
<rect x="100.374" y="200.832" width="35.4763" height="46.1676" rx="17.7382" fill="#FAE1C0"/>
<rect x="154.374" y="148.655" width="35.4763" height="98.3451" rx="17.7382" fill="#FAE1C0"/>
<rect x="207.374" y="67.5" width="35.4763" height="179.5" rx="17.7382" fill="#FAE1C0"/>
<rect x="261.874" y="55.4296" width="35.4763" height="191.57" rx="17.7382" fill="#FAE1C0"/>
<rect x="320.874" y="88.3917" width="35.4763" height="158.608" rx="17.7382" fill="#FAE1C0"/>
<rect x="378.874" y="9.5" width="35.4763" height="237.5" rx="17.7382" fill="#FAE1C0"/>
</svg>
