<svg width="62" height="62" viewBox="0 0 62 62" fill="none" xmlns="http://www.w3.org/2000/svg">
<rect y="28.1838" width="43.8843" height="43.8843" rx="21.9422" transform="rotate(-39.9583 0 28.1838)" fill="white" fill-opacity="0.54"/>
<path d="M37.5539 26.2894L23.3095 38.2241C22.9475 38.5274 22.5416 38.6588 22.0916 38.6183C21.6417 38.5778 21.265 38.3774 20.9616 38.017C20.6582 37.6566 20.5268 37.2506 20.5674 36.7991C20.608 36.3476 20.8085 35.9709 21.1687 35.6691L35.4131 23.7343L28.7216 23.144C28.252 23.1025 27.8796 22.9072 27.6044 22.558C27.3292 22.2087 27.202 21.8079 27.223 21.3554C27.2645 20.8859 27.4568 20.4986 27.7999 20.1937C28.1431 19.8887 28.5487 19.7569 29.0167 19.7982L39.7584 20.7459C39.9932 20.7666 40.1998 20.829 40.3784 20.9331C40.5569 21.0372 40.7171 21.1747 40.859 21.3458C41.0008 21.5168 41.1082 21.6986 41.1812 21.8912C41.2541 22.0838 41.2793 22.2982 41.2569 22.5344L40.3093 33.2761C40.2678 33.7456 40.0674 34.1223 39.708 34.4061C39.3485 34.6899 38.9332 34.811 38.4621 34.7694C38.0138 34.7101 37.6414 34.5148 37.3449 34.1834C37.0483 33.852 36.9212 33.4512 36.9635 32.9809L37.5539 26.2894Z" fill="white"/>
</svg>
