<svg width="24" height="24" viewBox="0 0 24 24" fill="none" xmlns="http://www.w3.org/2000/svg">
<path d="M11.9985 18C9.51599 18 7.49849 15.9825 7.49849 13.5C7.49849 11.0175 9.51599 9 11.9985 9C14.481 9 16.4985 11.0175 16.4985 13.5C16.4985 15.9825 14.481 18 11.9985 18ZM11.9985 9.75C9.92849 9.75 8.24849 11.43 8.24849 13.5C8.24849 15.57 9.92849 17.25 11.9985 17.25C14.0685 17.25 15.7485 15.57 15.7485 13.5C15.7485 11.43 14.0685 9.75 11.9985 9.75ZM22.1235 13.5C22.0384 13.4991 21.9561 13.4698 21.8896 13.4168C21.823 13.3638 21.776 13.2902 21.756 13.2075C21.681 12.885 19.8435 5.25 11.9985 5.25C4.15349 5.25 2.31599 12.885 2.24099 13.2075C2.2146 13.3002 2.15375 13.3792 2.07092 13.4285C1.98809 13.4777 1.88955 13.4934 1.79553 13.4723C1.70151 13.4512 1.61914 13.3949 1.5653 13.315C1.51146 13.2351 1.49024 13.1376 1.50599 13.0425C1.52849 12.96 3.54599 4.5 11.9985 4.5C20.451 4.5 22.4685 12.9525 22.491 13.0425C22.536 13.245 22.4085 13.4475 22.206 13.4925C22.176 13.4925 22.146 13.5 22.1235 13.5Z" fill="white"/>
</svg>
