<svg width="22" height="22" viewBox="0 0 22 22" fill="none" xmlns="http://www.w3.org/2000/svg">
<g clip-path="url(#clip0_222_1867)">
<path d="M16.8438 0H5.15625C2.30853 0 0 2.30853 0 5.15625V16.8438C0 19.6915 2.30853 22 5.15625 22H16.8438C19.6915 22 22 19.6915 22 16.8438V5.15625C22 2.30853 19.6915 0 16.8438 0Z" fill="#F4F2ED"/>
<mask id="mask0_222_1867" style="mask-type:luminance" maskUnits="userSpaceOnUse" x="5" y="2" width="12" height="18">
<path d="M5.24219 2.40625H16.7028V19.5938H5.24219V2.40625Z" fill="white"/>
</mask>
<g mask="url(#mask0_222_1867)">
<path d="M8.1078 19.5938C9.68905 19.5938 10.9724 18.3105 10.9724 16.7292V13.8646H8.1078C6.52655 13.8646 5.24316 15.148 5.24316 16.7292C5.24316 18.3105 6.52655 19.5938 8.1078 19.5938Z" fill="#0ACF83"/>
<path d="M5.24316 11C5.24316 9.41874 6.52655 8.13544 8.1078 8.13544H10.9724V13.8645H8.1078C6.52655 13.8645 5.24316 12.5812 5.24316 11Z" fill="#A259FF"/>
<path d="M5.24316 5.2708C5.24316 3.68955 6.52655 2.40625 8.1078 2.40625H10.9724V8.13545H8.1078C6.52655 8.13545 5.24316 6.85205 5.24316 5.2708Z" fill="#F24E1E"/>
<path d="M10.9722 2.40625H13.8367C15.418 2.40625 16.7014 3.68955 16.7014 5.2708C16.7014 6.85205 15.418 8.13545 13.8367 8.13545H10.9722V2.40625Z" fill="#FF7262"/>
<path d="M16.7014 11C16.7014 12.5812 15.418 13.8645 13.8367 13.8645C12.2555 13.8645 10.9722 12.5812 10.9722 11C10.9722 9.41874 12.2555 8.13544 13.8367 8.13544C15.418 8.13544 16.7014 9.41874 16.7014 11Z" fill="#1ABCFE"/>
</g>
</g>
<defs>
<clipPath id="clip0_222_1867">
<rect width="22" height="22" fill="white"/>
</clipPath>
</defs>
</svg>
