<svg width="26" height="16" viewBox="0 0 26 16" fill="none" xmlns="http://www.w3.org/2000/svg">
<path d="M2.15467 16C1.56178 16 1.05467 15.7889 0.633333 15.3667C0.212 14.9444 0.000888889 14.4378 0 13.8467V2.15333C0 1.56133 0.211111 1.05467 0.633333 0.633333C1.05556 0.212 1.56222 0.000888889 2.15333 0H13.8467C14.4387 0 14.9453 0.211111 15.3667 0.633333C15.788 1.05556 15.9991 1.56222 16 2.15333V13.8467C16 14.4387 15.7889 14.9453 15.3667 15.3667C14.9444 15.788 14.4378 15.9991 13.8467 16H2.15467ZM19.756 6.66667C19.4387 6.66667 19.1778 6.56445 18.9733 6.36C18.7689 6.15556 18.6667 5.89467 18.6667 5.57733V1.08933C18.6667 0.772 18.7689 0.511111 18.9733 0.306667C19.1778 0.102222 19.4387 0 19.756 0H24.244C24.5613 0 24.8222 0.102222 25.0267 0.306667C25.2311 0.511111 25.3333 0.772 25.3333 1.08933V5.57733C25.3333 5.89556 25.2311 6.15645 25.0267 6.36C24.8222 6.56356 24.5613 6.66578 24.244 6.66667H19.756ZM20 5.33333H24V1.33333H20V5.33333ZM2.15467 14.6667H13.8467C14.0858 14.6667 14.2822 14.5898 14.436 14.436C14.5898 14.2822 14.6667 14.0858 14.6667 13.8467V2.15333C14.6667 1.91422 14.5898 1.71778 14.436 1.564C14.2822 1.41022 14.0858 1.33333 13.8467 1.33333H2.15333C1.91422 1.33333 1.71778 1.41022 1.564 1.564C1.41022 1.71778 1.33333 1.91467 1.33333 2.15467V13.8467C1.33333 14.0858 1.41022 14.2822 1.564 14.436C1.71778 14.5898 1.91467 14.6667 2.15467 14.6667ZM4 11.872H12C12.2071 11.872 12.3622 11.7756 12.4653 11.5827C12.5693 11.3889 12.5578 11.1978 12.4307 11.0093L10.264 8.11067C10.1484 7.96667 10.0049 7.89467 9.83333 7.89467C9.66178 7.89467 9.51822 7.96667 9.40267 8.11067L7.33333 10.8707L5.93067 9.01067C5.81511 8.86667 5.67156 8.79467 5.5 8.79467C5.32844 8.79467 5.18489 8.86667 5.06933 9.01067L3.56933 11.0107C3.44222 11.1982 3.43067 11.3889 3.53467 11.5827C3.63778 11.7756 3.79289 11.872 4 11.872ZM19.756 16C19.4387 16 19.1778 15.8978 18.9733 15.6933C18.7689 15.4889 18.6667 15.228 18.6667 14.9107V10.4227C18.6667 10.1053 18.7689 9.84444 18.9733 9.64C19.1778 9.43556 19.4387 9.33333 19.756 9.33333H24.244C24.5613 9.33333 24.8222 9.43556 25.0267 9.64C25.2311 9.84444 25.3333 10.1053 25.3333 10.4227V14.9107C25.3333 15.2289 25.2311 15.4898 25.0267 15.6933C24.8222 15.8969 24.5613 15.9991 24.244 16H19.756ZM20 14.6667H24V10.6667H20V14.6667Z" fill="white"/>
</svg>
