<svg width="19" height="21" viewBox="0 0 19 21" fill="none" xmlns="http://www.w3.org/2000/svg">
<path d="M1.33333 19.18H6.256V12.4107C6.256 12.1058 6.35956 11.8502 6.56667 11.644C6.77289 11.4369 7.02844 11.3333 7.33333 11.3333H11.3333C11.6382 11.3333 11.8942 11.4369 12.1013 11.644C12.3076 11.8502 12.4107 12.1058 12.4107 12.4107V19.18H17.3333V7.59067C17.3333 7.45378 17.3036 7.32933 17.244 7.21733C17.1844 7.10533 17.1031 7.00756 17 6.924L9.82133 1.51333C9.68444 1.39422 9.52178 1.33467 9.33333 1.33467C9.14489 1.33467 8.98267 1.39422 8.84667 1.51333L1.66667 6.924C1.56444 7.00933 1.48311 7.10711 1.42267 7.21733C1.36222 7.32756 1.33244 7.452 1.33333 7.59067V19.18ZM0 19.18V7.59067C0 7.24933 0.0764444 6.92622 0.229333 6.62133C0.382222 6.31645 0.592889 6.06533 0.861333 5.868L8.04133 0.430667C8.41733 0.143556 8.84667 0 9.32933 0C9.812 0 10.244 0.143556 10.6253 0.430667L17.8053 5.86667C18.0747 6.064 18.2853 6.31556 18.4373 6.62133C18.5902 6.92622 18.6667 7.24933 18.6667 7.59067V19.18C18.6667 19.5373 18.5338 19.8489 18.268 20.1147C18.0022 20.3804 17.6907 20.5133 17.3333 20.5133H12.1547C11.8489 20.5133 11.5929 20.4102 11.3867 20.204C11.1804 19.9969 11.0773 19.7409 11.0773 19.436V12.668H7.58933V19.436C7.58933 19.7418 7.48622 19.9978 7.28 20.204C7.07378 20.4102 6.81822 20.5133 6.51333 20.5133H1.33333C0.976 20.5133 0.664444 20.3804 0.398666 20.1147C0.132889 19.8489 0 19.5373 0 19.18Z" fill="white"/>
</svg>
