<svg width="244" height="146" viewBox="0 0 244 146" fill="none" xmlns="http://www.w3.org/2000/svg">
<path d="M5.29684 88.6128C-3.38117 95.2716 5.34033 115.417 1.09673e-05 129.012L0 145.473L108.675 143.845H171.229H200.886L217.261 138.649L231.914 126.312L239.548 112.431L241.804 103.582L243.019 90.0491L241.804 68.361L239.548 58.8182L235.067 50.2952L234.93 50.1064C231.197 44.9628 223.63 34.5363 219.199 36.6527C214.713 38.7953 214.237 103.179 200.886 105.676C187.535 108.173 181.305 38.6726 165.061 41.1696C148.818 43.6665 152.823 107.959 137.692 110.254C122.561 112.548 109.878 -2.9443 96.5272 1.63351C83.1765 6.21132 82.7314 57.8163 75.166 65.7236C67.6005 73.6308 60.7026 54.487 52.9146 58.2325C45.1267 61.978 42.0115 103.179 34.001 104.843C25.9906 106.508 13.9749 81.9541 5.29684 88.6128Z" fill="url(#paint0_linear_27_2187)" fill-opacity="0.5"/>
<path d="M5.29684 88.6129C13.9749 81.9542 25.9906 106.508 34.001 104.843C42.0115 103.179 45.1267 61.978 52.9146 58.2325C60.7026 54.487 67.6005 73.6308 75.1659 65.7236C82.7314 57.8163 83.1764 6.21132 96.5272 1.63351C109.878 -2.9443 122.561 112.548 137.692 110.254C152.823 107.959 148.818 43.6665 165.061 41.1696C181.305 38.6726 187.535 108.173 200.886 105.676C214.237 103.179 212.556 43.1509 220.344 37.3246" stroke="#AC39D4" stroke-width="3"/>
<defs>
<linearGradient id="paint0_linear_27_2187" x1="115.218" y1="1.50092" x2="115.218" y2="148.501" gradientUnits="userSpaceOnUse">
<stop stop-color="#AC39D4"/>
<stop offset="1" stop-color="#AC39D4" stop-opacity="0"/>
</linearGradient>
</defs>
</svg>
