<svg width="32" height="32" viewBox="0 0 32 32" fill="none" xmlns="http://www.w3.org/2000/svg">
<path d="M4.00002 27.4533L8.78669 22.6667H24C24.7073 22.6667 25.3855 22.3857 25.8856 21.8856C26.3857 21.3855 26.6667 20.7072 26.6667 20V8C26.6667 7.29276 26.3857 6.61448 25.8856 6.11438C25.3855 5.61428 24.7073 5.33333 24 5.33333H6.66669C5.95944 5.33333 5.28117 5.61428 4.78107 6.11438C4.28097 6.61448 4.00002 7.29276 4.00002 8V27.4533ZM4.00002 29.3333H2.66669V8C2.66669 6.93913 3.08811 5.92172 3.83826 5.17157C4.58841 4.42143 5.60582 4 6.66669 4H24C25.0609 4 26.0783 4.42143 26.8284 5.17157C27.5786 5.92172 28 6.93913 28 8V20C28 21.0609 27.5786 22.0783 26.8284 22.8284C26.0783 23.5786 25.0609 24 24 24H9.33335L4.00002 29.3333Z" fill="white" fill-opacity="0.6"/>
</svg>
