<svg width="32" height="32" viewBox="0 0 32 32" fill="none" xmlns="http://www.w3.org/2000/svg">
<path d="M16 28C17.6042 28.0001 19.1921 27.6785 20.6699 27.0543C22.1477 26.4301 23.4853 25.516 24.6037 24.3659C25.7221 23.2158 26.5985 21.8532 27.1812 20.3585C27.7638 18.8639 28.0409 17.2676 27.996 15.664C26.3177 16.8321 24.3024 17.4168 22.2595 17.3281C20.2167 17.2395 18.2596 16.4825 16.6888 15.1735C15.118 13.8644 14.0206 12.0758 13.5652 10.0824C13.1098 8.08907 13.3215 6.00131 14.168 4.14C11.1789 4.60062 8.47404 6.17289 6.59448 8.54222C4.71492 10.9116 3.79931 13.9032 4.03084 16.9187C4.26237 19.9341 5.62396 22.7509 7.8432 24.8056C10.0624 26.8602 12.9756 28.0011 16 28Z" stroke="white" stroke-linecap="round" stroke-linejoin="round"/>
</svg>
