<svg width="32" height="32" viewBox="0 0 32 32" fill="none" xmlns="http://www.w3.org/2000/svg">
<path d="M6.66664 25.0267V23.6933H8.82131V13.1267C8.82131 11.3844 9.37242 9.85244 10.4746 8.53067C11.5769 7.20889 12.9742 6.38578 14.6666 6.06133V4H17.3333V6.06133C19.0258 6.38667 20.4231 7.21022 21.5253 8.532C22.6275 9.85378 23.1786 11.3858 23.1786 13.128V23.692H25.3333V25.0253L6.66664 25.0267ZM16 28.5133C15.4035 28.5133 14.8955 28.3031 14.476 27.8827C14.0564 27.4631 13.8466 26.9551 13.8466 26.3587H18.1533C18.1533 26.956 17.9435 27.4644 17.524 27.884C17.1044 28.3036 16.5964 28.5124 16 28.5107M10.1546 23.6933H21.8466V13.128C21.8466 11.5076 21.2773 10.128 20.1386 8.98933C19 7.85067 17.6204 7.28178 16 7.28267C14.3795 7.28356 13 7.85244 11.8613 8.98933C10.7226 10.1262 10.1538 11.5058 10.1546 13.128V23.6933ZM4.30664 13.1027C4.30664 11.3933 4.64709 9.80311 5.32797 8.332C6.00975 6.86089 6.93597 5.59111 8.10664 4.52267L9.00664 5.50267C7.96397 6.44667 7.14175 7.56889 6.53997 8.86933C5.9382 10.1698 5.6382 11.5809 5.63997 13.1027H4.30664ZM26.3573 13.1027C26.3573 11.5818 26.0569 10.1662 25.456 8.856C24.8551 7.54578 24.0333 6.41956 22.9906 5.47733L23.8906 4.52267C25.0622 5.59111 25.9884 6.86089 26.6693 8.332C27.3502 9.80311 27.6906 11.3933 27.6906 13.1027H26.3573Z" fill="white"/>
</svg>
