<svg width="202" height="207" viewBox="0 0 202 207" fill="none" xmlns="http://www.w3.org/2000/svg">
<g clip-path="url(#clip0_325_1813)">
<path d="M90.1949 96.86C86.5709 96.86 83.7149 94.82 83.6429 91.076H85.6349C85.7069 93.716 87.4109 95.18 90.1229 95.18C92.4029 95.18 94.0109 94.052 94.0109 91.724C94.0109 89.636 92.4509 88.532 89.6909 88.532H88.6589V86.972H89.6669C92.2349 86.972 93.5309 85.892 93.5309 84.14C93.5309 82.34 91.9229 81.26 89.9549 81.26C87.5789 81.26 86.1629 82.796 86.1629 85.076H84.1949C84.2189 81.836 86.4029 79.676 90.0269 79.676C93.0749 79.676 95.4989 81.332 95.4989 84.188C95.4989 86.036 94.3709 87.116 92.7869 87.644V87.716C95.0909 88.316 96.0989 89.78 96.0989 91.916C96.0989 95.06 93.5309 96.86 90.1949 96.86ZM97.931 96.5V94.124H100.259V96.5H97.931ZM108.289 96.86C104.665 96.86 101.809 94.82 101.737 91.076H103.729C103.801 93.716 105.505 95.18 108.217 95.18C110.497 95.18 112.105 94.052 112.105 91.724C112.105 89.636 110.545 88.532 107.785 88.532H106.753V86.972H107.761C110.329 86.972 111.625 85.892 111.625 84.14C111.625 82.34 110.017 81.26 108.049 81.26C105.673 81.26 104.257 82.796 104.257 85.076H102.289C102.313 81.836 104.497 79.676 108.121 79.676C111.169 79.676 113.593 81.332 113.593 84.188C113.593 86.036 112.465 87.116 110.881 87.644V87.716C113.185 88.316 114.193 89.78 114.193 91.916C114.193 95.06 111.625 96.86 108.289 96.86ZM62.1716 125.5V113.092H64.1156V114.868H64.1636C64.9316 113.668 66.2516 112.804 67.8116 112.804C69.3236 112.804 70.5236 113.572 71.0516 115.012H71.0996C71.8916 113.596 73.3796 112.804 74.8916 112.804C77.0996 112.804 78.6596 114.22 78.6596 116.788V125.5H76.7156V116.884C76.7156 115.348 75.6836 114.436 74.4356 114.436C72.8276 114.436 71.3876 115.828 71.3876 117.772V125.5H69.4436V116.884C69.4436 115.348 68.5796 114.436 67.3076 114.436C65.7956 114.436 64.1156 115.828 64.1156 117.772V125.5H62.1716ZM81.2263 125.5V113.092H83.1703V125.5H81.2263ZM81.2263 110.74V108.34H83.1703V110.74H81.2263ZM87.764 113.092V114.724H87.812C88.7 113.548 89.948 112.804 91.748 112.804C94.34 112.804 95.924 114.22 95.924 116.788V125.5H93.98V116.956C93.98 115.348 92.924 114.436 91.172 114.436C89.204 114.436 87.764 115.828 87.764 117.868V125.5H85.82V113.092H87.764ZM108.34 125.5H106.396V123.796H106.348C105.46 124.996 104.404 125.788 102.604 125.788C100.06 125.788 98.4277 124.252 98.4277 121.684V113.092H100.372V121.636C100.372 123.244 101.404 124.18 103.156 124.18C105.124 124.18 106.396 122.692 106.396 120.724V113.092H108.34V125.5ZM110.176 114.676V113.092H111.976V109.18H113.92V113.092H116.32V114.676H113.92V122.74C113.92 123.604 114.376 123.892 115.168 123.892C115.552 123.892 115.984 123.796 116.2 123.724H116.272V125.404C115.816 125.5 115.288 125.572 114.712 125.572C113.128 125.572 111.976 124.924 111.976 123.172V114.676H110.176ZM123.515 125.836C119.723 125.836 117.515 122.908 117.515 119.308C117.515 115.708 119.867 112.78 123.395 112.78C127.115 112.78 129.107 115.66 129.107 119.764H119.507C119.651 122.284 121.019 124.204 123.515 124.204C125.315 124.204 126.515 123.34 126.947 121.66H128.843C128.267 124.324 126.323 125.836 123.515 125.836ZM123.395 114.316C121.091 114.316 119.843 116.044 119.555 118.3H127.019C126.899 115.828 125.627 114.316 123.395 114.316ZM135.712 125.86C132.304 125.86 130.408 124.252 130.216 121.468H132.208C132.472 123.628 133.912 124.228 135.76 124.228C137.8 124.228 138.64 123.34 138.64 122.188C138.64 120.796 137.68 120.436 135.4 119.956C132.952 119.452 130.768 118.948 130.768 116.236C130.768 114.172 132.352 112.828 135.232 112.828C138.304 112.828 139.816 114.292 140.104 116.716H138.112C137.92 115.084 137.032 114.364 135.184 114.364C133.408 114.364 132.688 115.156 132.688 116.14C132.688 117.484 133.888 117.748 136.023 118.18C138.52 118.684 140.608 119.236 140.608 122.092C140.608 124.588 138.568 125.86 135.712 125.86Z" fill="white"/>
<path d="M178.476 168.331C163.221 186.562 142.024 198.83 118.616 202.975C95.2081 207.12 71.0879 202.878 50.4991 190.994C29.9102 179.111 14.1717 160.347 6.05227 138.004C-2.06712 115.661 -2.04719 91.1709 6.10855 68.8413C14.2643 46.5118 30.0333 27.7737 50.6415 15.9235C71.2497 4.07332 95.3768 -0.129749 118.778 4.05372C142.179 8.2372 163.356 20.5392 178.582 38.7955C193.808 57.0518 202.108 80.0928 202.022 103.865L163.588 103.726C163.642 88.998 158.499 74.723 149.066 63.4123C139.633 52.1016 126.513 44.4798 112.014 41.888C97.5161 39.2961 82.5682 41.9001 69.8004 49.2419C57.0326 56.5837 47.2628 68.1929 42.2099 82.0272C37.1571 95.8615 37.1447 111.035 42.1751 124.877C47.2054 138.719 56.9563 150.345 69.7121 157.707C82.468 165.07 97.4116 167.698 111.914 165.13C126.417 162.561 139.549 154.961 149.001 143.666L178.476 168.331Z" fill="#FAE1C0"/>
<path d="M202.023 103.5C202.023 127.272 193.639 150.283 178.348 168.484C163.056 186.685 141.835 198.911 118.419 203.01C95.0024 207.109 70.8907 202.818 50.3254 190.894C29.7602 178.969 14.059 160.174 5.98397 137.815C-2.09104 115.457 -2.02247 90.9663 6.17759 68.653C14.3777 46.3397 30.1839 27.633 50.8156 15.8237C71.4472 4.01449 95.5826 -0.140661 118.976 4.08928C142.369 8.31921 163.521 20.6633 178.71 38.9497L149.147 63.5067C139.736 52.177 126.631 44.5291 112.137 41.9083C97.6436 39.2876 82.6901 41.862 69.9074 49.1786C57.1247 56.4952 47.3316 68.0853 42.2511 81.9099C37.1706 95.7345 37.1282 110.908 42.1312 124.761C47.1342 138.614 56.8622 150.258 69.6037 157.646C82.3452 165.034 97.2841 167.693 111.792 165.153C126.3 162.613 139.448 155.039 148.922 143.762C158.396 132.485 163.59 118.229 163.59 103.5H202.023Z" fill="#D4AEA1"/>
</g>
<defs>
<clipPath id="clip0_325_1813">
<rect width="202" height="207" fill="white"/>
</clipPath>
</defs>
</svg>
