<svg width="202" height="207" viewBox="0 0 202 207" fill="none" xmlns="http://www.w3.org/2000/svg">
<g clip-path="url(#clip0_325_1813)">
<path d="M200.379 103.5C200.379 124.856 193.499 145.644 180.759 162.784C168.019 179.924 150.097 192.504 129.647 198.66C109.197 204.816 87.3083 204.221 67.2234 196.963C47.1385 189.704 29.9262 176.169 18.1366 158.361C6.34699 140.554 0.607396 119.423 1.76818 98.0982C2.92897 76.7736 10.9284 56.3901 24.5812 39.9679C38.2341 23.5457 56.8139 11.9584 77.568 6.92295C98.3221 1.88746 120.146 3.67162 139.807 12.0111L125.758 45.1313C113.215 39.8108 99.2916 38.6726 86.0508 41.8851C72.81 45.0977 60.9563 52.4902 52.2459 62.9673C43.5356 73.4445 38.4321 86.4488 37.6915 100.054C36.951 113.659 40.6128 127.14 48.1343 138.501C55.6559 149.861 66.6372 158.497 79.4511 163.128C92.2649 167.759 106.23 168.138 119.276 164.211C132.323 160.283 143.757 152.258 151.885 141.322C160.013 130.387 164.402 117.125 164.402 103.5L200.379 103.5Z" fill="#A5BECC"/>
<path d="M139.292 195.206C119.584 203.434 97.7505 205.096 77.025 199.944C56.2996 194.791 37.7852 183.1 24.2249 166.601C10.6647 150.102 2.78005 129.674 1.73923 108.343C0.69841 87.0124 6.55678 65.9137 18.4464 48.1732C30.3359 30.4326 47.6241 16.9941 67.7495 9.84867C87.8749 2.70324 109.767 2.23107 130.182 8.50211C150.596 14.7731 168.448 27.4538 181.091 44.6652C193.735 61.8766 200.497 82.7031 200.377 104.059L164.401 103.857C164.478 90.2318 160.163 76.9448 152.097 65.9642C144.031 54.9835 132.642 46.8935 119.617 42.8927C106.593 38.8918 92.6264 39.1931 79.7867 43.7517C66.9469 48.3104 55.9173 56.884 48.3319 68.2022C40.7465 79.5205 37.009 92.9812 37.673 106.59C38.337 120.199 43.3673 133.232 52.0186 143.758C60.6698 154.284 72.4818 161.743 85.7043 165.03C98.9268 168.317 112.857 167.257 125.429 162.007L139.292 195.206Z" fill="#6E8688"/>
<path d="M78.4686 118.509C76.0686 118.509 74.3086 117.773 72.9966 116.557C70.6606 114.445 69.8926 111.437 69.8926 106.925C69.8926 100.109 72.8046 95.5973 78.3726 95.5973C82.7566 95.5973 84.9326 98.5093 85.2846 101.677H82.6286C82.4366 99.5973 80.9646 97.8693 78.4366 97.8693C74.1486 97.8693 72.6126 101.325 72.5166 106.701H72.5806C73.9886 104.749 75.9726 103.661 78.5966 103.661C82.6286 103.661 85.7966 106.989 85.8286 111.021C85.8606 115.117 82.5646 118.509 78.4686 118.509ZM78.4046 116.333C81.2526 116.333 83.3326 114.221 83.3326 111.117C83.3326 108.013 81.1566 105.869 78.3086 105.869C75.1726 105.869 72.9966 107.949 72.9966 111.085C72.9966 114.189 75.3326 116.333 78.4046 116.333ZM96.9983 118.509C91.5903 118.509 88.4863 114.029 88.4863 107.053C88.4863 99.9493 91.8463 95.5973 97.0303 95.5973C102.214 95.5973 105.51 99.8853 105.51 107.053C105.51 114.029 102.47 118.509 96.9983 118.509ZM97.0303 116.173C100.934 116.173 102.726 112.717 102.726 107.053C102.726 101.485 100.838 97.9013 97.0303 97.9013C93.1583 97.9013 91.2703 101.389 91.2703 107.053C91.2703 112.621 93.1583 116.173 97.0303 116.173ZM113.162 94.8613C114.741 94.8613 115.935 95.4906 116.746 96.7493C117.557 97.9866 117.962 99.736 117.962 101.997C117.962 104.259 117.567 106.029 116.778 107.309C116.01 108.568 114.805 109.197 113.162 109.197C112.159 109.197 111.306 108.909 110.602 108.333C109.898 107.757 109.365 106.936 109.002 105.869C108.661 104.781 108.49 103.491 108.49 101.997C108.49 99.736 108.863 97.9866 109.61 96.7493C110.357 95.4906 111.541 94.8613 113.162 94.8613ZM113.162 96.8453C112.351 96.8453 111.754 97.2826 111.37 98.1573C111.007 99.0106 110.826 100.291 110.826 101.997C110.826 103.704 111.007 104.995 111.37 105.869C111.754 106.744 112.351 107.181 113.162 107.181C113.994 107.181 114.613 106.755 115.018 105.901C115.423 105.027 115.626 103.725 115.626 101.997C115.626 100.291 115.423 99.0106 115.018 98.1573C114.613 97.2826 113.994 96.8453 113.162 96.8453ZM127.786 95.1813L115.114 118.029H112.65L125.322 95.1813H127.786ZM127.146 104.013C128.191 104.013 129.066 104.301 129.77 104.877C130.474 105.432 131.007 106.243 131.37 107.309C131.754 108.355 131.946 109.635 131.946 111.149C131.946 113.411 131.551 115.181 130.762 116.461C129.994 117.72 128.789 118.349 127.146 118.349C126.143 118.349 125.29 118.061 124.586 117.485C123.882 116.909 123.349 116.088 122.986 115.021C122.645 113.933 122.474 112.643 122.474 111.149C122.474 108.888 122.847 107.139 123.594 105.901C124.341 104.643 125.525 104.013 127.146 104.013ZM127.146 106.029C126.335 106.029 125.738 106.456 125.354 107.309C124.991 108.163 124.81 109.443 124.81 111.149C124.81 112.877 124.991 114.179 125.354 115.053C125.738 115.907 126.335 116.333 127.146 116.333C127.978 116.333 128.597 115.907 129.002 115.053C129.407 114.2 129.61 112.899 129.61 111.149C129.61 109.443 129.407 108.163 129.002 107.309C128.597 106.456 127.978 106.029 127.146 106.029Z" fill="white"/>
</g>
<defs>
<clipPath id="clip0_325_1813">
<rect width="202" height="207" fill="white"/>
</clipPath>
</defs>
</svg>
