<svg width="23" height="22" viewBox="0 0 23 22" fill="none" xmlns="http://www.w3.org/2000/svg">
<g clip-path="url(#clip0_222_1919)">
<path d="M3.99028 0H18.5397C20.7455 0 22.529 1.7835 22.529 3.9893V17.9755C22.529 20.1813 20.7455 21.9648 18.5397 21.9648H3.99028C1.78447 21.9648 0.000976562 20.1813 0.000976562 17.9755V3.9893C0.000976562 1.7835 1.78447 0 3.99028 0Z" fill="#00005B"/>
<path d="M5.35156 15.4035V5.74463C5.35156 5.67889 5.37972 5.6414 5.44546 5.6414L5.58168 5.64114L5.68711 5.64026L5.76147 5.63885L5.84067 5.63683L5.92576 5.63384L5.97108 5.63199C6.05556 5.62847 6.14136 5.62627 6.22892 5.62442L6.49776 5.61879C6.52833 5.61808 6.55916 5.61726 6.59025 5.61632L6.68441 5.61324C6.76889 5.61019 6.85548 5.60785 6.94419 5.6062L7.21637 5.60136L7.40478 5.59723L7.50114 5.59441C7.69509 5.58825 7.88491 5.58614 8.07331 5.58544L8.35527 5.58508C9.125 5.58508 9.76327 5.67889 10.289 5.87601C10.7602 6.03607 11.1898 6.29901 11.5468 6.64575C11.8492 6.94926 12.0829 7.31418 12.232 7.71583C12.3728 8.11007 12.4479 8.51372 12.4479 8.93612C12.4479 9.74338 12.2601 10.4098 11.8847 10.9355C11.5092 11.4611 10.9836 11.8553 10.3735 12.0806C9.7564 12.3075 9.07801 12.3939 8.33819 12.3995H8.06988L7.96543 12.3984L7.89846 12.3968L7.85903 12.3951L7.82366 12.393L7.79207 12.3904C7.7718 12.3884 7.7515 12.3869 7.73117 12.3858L7.68541 12.3838L7.63525 12.3825L7.55156 12.3813L7.3885 12.381V15.3941C7.39783 15.4598 7.35092 15.5161 7.28519 15.5256H5.4642C5.38914 15.5256 5.35156 15.488 5.35156 15.4035ZM7.39783 7.45297V10.6069L7.50818 10.6148C7.59327 10.6213 7.67857 10.625 7.76391 10.6257H8.26146C8.62754 10.6257 8.99362 10.5694 9.34087 10.4568C9.6413 10.3723 9.90407 10.1939 10.1106 9.95921C10.3077 9.7246 10.4016 9.40543 10.4016 8.99244C10.4104 8.6991 10.3355 8.4093 10.1857 8.15697C10.0328 7.92316 9.8195 7.74099 9.56245 7.63531L9.52866 7.62193C9.18132 7.48113 8.80583 7.42481 8.421 7.43423L8.20399 7.43449L8.102 7.43511L8.00459 7.43643L7.9121 7.43854C7.86698 7.43971 7.82386 7.44141 7.78274 7.44364C7.76257 7.44263 7.74238 7.44181 7.72219 7.44118L7.66596 7.43995L7.63956 7.43977L7.58975 7.44003L7.54452 7.44127L7.52358 7.44215L7.48512 7.44435L7.45133 7.44699L7.43611 7.4484L7.40944 7.45148L7.39783 7.45297ZM13.762 7.99743H15.4047C15.4933 7.99743 15.5653 8.05604 15.5967 8.13374L15.6018 8.14764C15.63 8.22271 15.6487 8.29777 15.6581 8.38225C15.6769 8.47615 15.6957 8.57937 15.705 8.67327L15.7129 8.76408C15.7191 8.84161 15.7239 8.92407 15.7239 9.01119C15.9927 8.69735 16.3151 8.43369 16.676 8.23248L16.7282 8.20396C17.16 7.95985 17.6575 7.83788 18.1549 7.83788C18.2207 7.82847 18.277 7.87537 18.2864 7.94111V9.80908C18.2864 9.88415 18.2394 9.91231 18.1362 9.91231C17.8208 9.90351 17.4973 9.92753 17.1884 9.99177L17.1224 10.0062C16.8502 10.0625 16.5874 10.147 16.334 10.2596C16.1556 10.3441 15.9866 10.4568 15.8552 10.6069V15.3941C15.8552 15.488 15.8177 15.5256 15.7332 15.5256H13.884C13.809 15.5349 13.7432 15.488 13.7338 15.4129V10.1752C13.7338 9.94988 13.7338 9.71519 13.7245 9.47116L13.7189 9.28812L13.7113 8.92204C13.7099 8.86103 13.708 8.80002 13.7057 8.739C13.7057 8.52305 13.6869 8.3166 13.6682 8.10065C13.6588 8.05375 13.6869 8.00684 13.7338 7.99743C13.7338 7.98942 13.7476 7.98827 13.7575 7.99391L13.762 7.99743Z" fill="#9999FF"/>
</g>
<defs>
<clipPath id="clip0_222_1919">
<rect width="22.53" height="22" fill="white"/>
</clipPath>
</defs>
</svg>
