<svg width="22" height="22" viewBox="0 0 22 22" fill="none" xmlns="http://www.w3.org/2000/svg">
<path fill-rule="evenodd" clip-rule="evenodd" d="M18.625 11.0037C18.6256 12.4273 18.2278 13.8227 17.4767 15.032C16.7255 16.2413 15.6508 17.2162 14.3744 17.8465C13.0979 18.4768 11.6705 18.7372 10.2536 18.5984C8.83681 18.4596 7.4871 17.9271 6.35721 17.061C6.41567 16.864 6.41996 16.6548 6.36964 16.4555C6.31931 16.2562 6.21622 16.0742 6.07122 15.9285C5.92621 15.7829 5.74463 15.679 5.54558 15.6277C5.34653 15.5765 5.13736 15.5799 4.94005 15.6374C3.81937 14.1691 3.26958 12.344 3.39276 10.501C3.51594 8.65797 4.30373 6.92226 5.60985 5.61614C6.91597 4.31002 8.65167 3.52224 10.4947 3.39905C12.3377 3.27587 14.1628 3.82566 15.6311 4.94634C15.5717 5.14418 15.5669 5.35443 15.6174 5.55475C15.6678 5.75507 15.7717 5.93797 15.9178 6.084C16.0639 6.23003 16.2469 6.33373 16.4472 6.38408C16.6476 6.43442 16.8578 6.42953 17.0556 6.36993C18.0746 7.69962 18.6263 9.32844 18.625 11.0037ZM15.974 4.40551C16.0804 4.29904 16.2068 4.21457 16.346 4.15695C16.4851 4.09933 16.6342 4.06967 16.7848 4.06967C16.9353 4.06967 17.0844 4.09933 17.2236 4.15695C17.3627 4.21457 17.4891 4.29903 17.5955 4.40551C17.702 4.51198 17.7865 4.63839 17.8441 4.7775C17.9017 4.91662 17.9314 5.06572 17.9314 5.2163C17.9314 5.36688 17.9017 5.51598 17.8441 5.6551C17.7865 5.79421 17.702 5.92062 17.5955 6.02709C18.7913 7.61805 19.3725 9.58716 19.2324 11.5724C19.0923 13.5577 18.2403 15.4256 16.833 16.8329C15.4258 18.2402 13.5578 19.0922 11.5725 19.2323C9.58728 19.3724 7.61817 18.7911 6.02721 17.5954C5.86728 17.7582 5.66245 17.8696 5.4389 17.9154C5.21535 17.9611 4.98322 17.9392 4.77217 17.8525C4.56113 17.7657 4.38074 17.618 4.25406 17.4282C4.12738 17.2384 4.06015 17.0151 4.06096 16.7869C4.06177 16.6353 4.09266 16.4854 4.15182 16.3458C4.21098 16.2063 4.29725 16.0798 4.40563 15.9738C3.2117 14.3827 2.63189 12.4142 2.77269 10.4298C2.91349 8.44553 3.76544 6.57862 5.17209 5.17197C6.57874 3.76532 8.44565 2.91336 10.43 2.77256C12.4143 2.63176 14.3828 3.21157 15.974 4.40551ZM10.9983 14.4375C11.9069 14.4375 12.7784 14.0766 13.4209 13.434C14.0634 12.7915 14.4243 11.9201 14.4243 11.0115C14.4243 10.1028 14.0634 9.2314 13.4209 8.58889C12.7784 7.94638 11.9069 7.58543 10.9983 7.58543C10.0897 7.58543 9.21823 7.94638 8.57572 8.58889C7.93321 9.2314 7.57226 10.1028 7.57226 11.0115C7.57226 11.9201 7.93321 12.7915 8.57572 13.434C9.21823 14.0766 10.0897 14.4375 10.9983 14.4375ZM10.9983 16.9794C12.5829 16.9794 14.1026 16.3499 15.2231 15.2294C16.3436 14.1089 16.9731 12.5892 16.9731 11.0046C16.9731 9.41997 16.3436 7.90025 15.2231 6.77975C14.1026 5.65925 12.5829 5.02976 10.9983 5.02976C10.2057 5.01587 9.4183 5.15998 8.68201 5.45368C7.94572 5.74739 7.2753 6.1848 6.70988 6.7404C6.14446 7.29599 5.69537 7.95864 5.38881 8.68967C5.08224 9.4207 4.92436 10.2055 4.92436 10.9982C4.92436 11.7909 5.08224 12.5757 5.38881 13.3067C5.69537 14.0377 6.14446 14.7004 6.70988 15.256C7.2753 15.8116 7.94572 16.249 8.68201 16.5427C9.4183 16.8364 10.2057 16.9805 10.9983 16.9666V16.9794ZM12.8335 11.0037C12.8389 11.2483 12.7955 11.4916 12.7056 11.7192C12.6158 11.9468 12.4814 12.1541 12.3103 12.3291C12.1392 12.504 11.9349 12.643 11.7094 12.7379C11.4838 12.8328 11.2416 12.8817 10.9969 12.8817C10.7522 12.8817 10.51 12.8328 10.2845 12.7379C10.0589 12.643 9.85462 12.504 9.68354 12.3291C9.51246 12.1541 9.37806 11.9468 9.28822 11.7192C9.19838 11.4916 9.15492 11.2483 9.16038 11.0037C9.17111 10.5237 9.36931 10.067 9.71256 9.73133C10.0558 9.39566 10.5168 9.20771 10.9969 9.20771C11.477 9.20771 11.938 9.39566 12.2813 9.73133C12.6245 10.067 12.8227 10.5237 12.8335 11.0037Z" fill="white"/>
</svg>
