<svg width="126" height="126" viewBox="0 0 126 126" fill="none" xmlns="http://www.w3.org/2000/svg">
<path d="M125.861 62.9303C125.861 97.6857 97.6857 125.861 62.9303 125.861C28.1748 125.861 0 97.6857 0 62.9303C0 28.1748 28.1748 0 62.9303 0C97.6857 0 125.861 28.1748 125.861 62.9303ZM9.54555 62.9303C9.54555 92.4138 33.4467 116.315 62.9303 116.315C92.4138 116.315 116.315 92.4138 116.315 62.9303C116.315 33.4467 92.4138 9.54555 62.9303 9.54555C33.4467 9.54555 9.54555 33.4467 9.54555 62.9303Z" fill="#909091"/>
<path d="M125.861 62.9303C125.861 75.3767 122.17 87.5436 115.255 97.8924C108.34 108.241 98.5116 116.307 87.0126 121.07C75.5136 125.833 62.8605 127.08 50.6532 124.651C38.4459 122.223 27.2328 116.23 18.4318 107.429C9.63089 98.6277 3.63737 87.4146 1.20919 75.2074C-1.21899 63.0001 0.0272385 50.3469 4.79028 38.8479C9.55332 27.3489 17.6193 17.5205 27.9681 10.6057C38.3169 3.6908 50.4838 -1.48422e-07 62.9303 0V12.2845C52.9135 12.2845 43.1217 15.2549 34.793 20.8199C26.4644 26.3849 19.973 34.2947 16.1397 43.549C12.3065 52.8033 11.3035 62.9865 13.2577 72.8108C15.2119 82.6351 20.0354 91.6593 27.1183 98.7422C34.2013 105.825 43.2255 110.649 53.0498 112.603C62.8741 114.557 73.0573 113.554 82.3115 109.721C91.5658 105.888 99.4756 99.3962 105.041 91.0675C110.606 82.7389 113.576 72.947 113.576 62.9303H125.861Z" fill="#22FF00"/>
<path d="M42.1182 70.4302C42.3342 64.3822 45.5502 59.4142 48.0462 56.8462V56.7982H39.8862V53.9902H51.5982V56.6782C48.6462 59.6782 45.9102 64.4542 45.6702 70.4302H42.1182ZM58.624 70.7902C54.976 70.7902 52.312 68.8702 52 65.6782H55.216C55.504 67.2862 56.848 68.0542 58.552 68.0542C60.424 68.0542 61.6 66.7102 61.6 64.9582C61.6 63.0142 60.28 61.9342 58.552 61.9342C57.304 61.9342 56.344 62.4142 55.864 62.9662H52.72L54.304 53.9902H64V56.7022H56.584L55.96 60.2542H56.008C56.728 59.6302 57.904 59.2222 59.416 59.2222C62.32 59.2222 64.984 61.4062 64.984 64.9582C64.984 68.3902 62.224 70.7902 58.624 70.7902ZM70.267 53.0542C71.499 53.0542 72.427 53.5262 73.051 54.4702C73.691 55.3982 74.011 56.7102 74.011 58.4062C74.011 60.1022 73.707 61.4302 73.099 62.3902C72.507 63.3342 71.563 63.8062 70.267 63.8062C69.483 63.8062 68.811 63.5902 68.251 63.1582C67.707 62.7262 67.299 62.1102 67.027 61.3102C66.755 60.4942 66.619 59.5262 66.619 58.4062C66.619 56.7102 66.907 55.3982 67.483 54.4702C68.075 53.5262 69.003 53.0542 70.267 53.0542ZM70.267 54.8302C69.739 54.8302 69.347 55.1342 69.091 55.7422C68.835 56.3342 68.707 57.2222 68.707 58.4062C68.707 59.6062 68.835 60.5102 69.091 61.1182C69.347 61.7262 69.739 62.0302 70.267 62.0302C70.827 62.0302 71.243 61.7342 71.515 61.1422C71.787 60.5342 71.923 59.6222 71.923 58.4062C71.923 57.2222 71.787 56.3342 71.515 55.7422C71.243 55.1342 70.827 54.8302 70.267 54.8302ZM81.595 53.2942L72.091 70.4302H69.955L79.459 53.2942H81.595ZM81.211 59.9182C82.027 59.9182 82.707 60.1342 83.251 60.5662C83.811 60.9822 84.235 61.5902 84.523 62.3902C84.811 63.1742 84.955 64.1342 84.955 65.2702C84.955 66.9662 84.651 68.2942 84.043 69.2542C83.435 70.1982 82.491 70.6702 81.211 70.6702C80.411 70.6702 79.739 70.4542 79.195 70.0222C78.651 69.5902 78.235 68.9742 77.947 68.1742C77.675 67.3582 77.539 66.3902 77.539 65.2702C77.539 63.5742 77.827 62.2622 78.403 61.3342C78.995 60.3902 79.931 59.9182 81.211 59.9182ZM81.211 61.6942C80.667 61.6942 80.267 61.9902 80.011 62.5822C79.771 63.1742 79.651 64.0702 79.651 65.2702C79.651 66.4702 79.771 67.3742 80.011 67.9822C80.267 68.5742 80.667 68.8702 81.211 68.8702C81.771 68.8702 82.179 68.5742 82.435 67.9822C82.707 67.3902 82.843 66.4862 82.843 65.2702C82.843 64.0702 82.707 63.1742 82.435 62.5822C82.179 61.9902 81.771 61.6942 81.211 61.6942Z" fill="white"/>
</svg>
