<svg width="24" height="24" viewBox="0 0 24 24" fill="none" xmlns="http://www.w3.org/2000/svg">
<g clip-path="url(#clip0_27_127)">
<path d="M6.00001 4.8C5.36349 4.8 4.75304 4.54714 4.30295 4.09706C3.85286 3.64697 3.60001 3.03652 3.60001 2.4C3.60001 1.76348 3.85286 1.15303 4.30295 0.702944C4.75304 0.252856 5.36349 0 6.00001 0C6.63653 0 7.24697 0.252856 7.69706 0.702944C8.14715 1.15303 8.40001 1.76348 8.40001 2.4C8.40001 3.03652 8.14715 3.64697 7.69706 4.09706C7.24697 4.54714 6.63653 4.8 6.00001 4.8ZM12 4.8C11.3635 4.8 10.753 4.54714 10.3029 4.09706C9.85286 3.64697 9.60001 3.03652 9.60001 2.4C9.60001 1.76348 9.85286 1.15303 10.3029 0.702944C10.753 0.252856 11.3635 0 12 0C12.6365 0 13.247 0.252856 13.6971 0.702944C14.1471 1.15303 14.4 1.76348 14.4 2.4C14.4 3.03652 14.1471 3.64697 13.6971 4.09706C13.247 4.54714 12.6365 4.8 12 4.8ZM18 4.8C17.3635 4.8 16.753 4.54714 16.3029 4.09706C15.8529 3.64697 15.6 3.03652 15.6 2.4C15.6 1.76348 15.8529 1.15303 16.3029 0.702944C16.753 0.252856 17.3635 0 18 0C18.6365 0 19.247 0.252856 19.6971 0.702944C20.1471 1.15303 20.4 1.76348 20.4 2.4C20.4 3.03652 20.1471 3.64697 19.6971 4.09706C19.247 4.54714 18.6365 4.8 18 4.8ZM6.00001 10.8C5.36349 10.8 4.75304 10.5471 4.30295 10.0971C3.85286 9.64697 3.60001 9.03652 3.60001 8.4C3.60001 7.76348 3.85286 7.15303 4.30295 6.70294C4.75304 6.25286 5.36349 6 6.00001 6C6.63653 6 7.24697 6.25286 7.69706 6.70294C8.14715 7.15303 8.40001 7.76348 8.40001 8.4C8.40001 9.03652 8.14715 9.64697 7.69706 10.0971C7.24697 10.5471 6.63653 10.8 6.00001 10.8ZM12 10.8C11.3635 10.8 10.753 10.5471 10.3029 10.0971C9.85286 9.64697 9.60001 9.03652 9.60001 8.4C9.60001 7.76348 9.85286 7.15303 10.3029 6.70294C10.753 6.25286 11.3635 6 12 6C12.6365 6 13.247 6.25286 13.6971 6.70294C14.1471 7.15303 14.4 7.76348 14.4 8.4C14.4 9.03652 14.1471 9.64697 13.6971 10.0971C13.247 10.5471 12.6365 10.8 12 10.8ZM18 10.8C17.3635 10.8 16.753 10.5471 16.3029 10.0971C15.8529 9.64697 15.6 9.03652 15.6 8.4C15.6 7.76348 15.8529 7.15303 16.3029 6.70294C16.753 6.25286 17.3635 6 18 6C18.6365 6 19.247 6.25286 19.6971 6.70294C20.1471 7.15303 20.4 7.76348 20.4 8.4C20.4 9.03652 20.1471 9.64697 19.6971 10.0971C19.247 10.5471 18.6365 10.8 18 10.8ZM6.00001 16.8C5.36349 16.8 4.75304 16.5471 4.30295 16.0971C3.85286 15.647 3.60001 15.0365 3.60001 14.4C3.60001 13.7635 3.85286 13.153 4.30295 12.7029C4.75304 12.2529 5.36349 12 6.00001 12C6.63653 12 7.24697 12.2529 7.69706 12.7029C8.14715 13.153 8.40001 13.7635 8.40001 14.4C8.40001 15.0365 8.14715 15.647 7.69706 16.0971C7.24697 16.5471 6.63653 16.8 6.00001 16.8ZM12 16.8C11.3635 16.8 10.753 16.5471 10.3029 16.0971C9.85286 15.647 9.60001 15.0365 9.60001 14.4C9.60001 13.7635 9.85286 13.153 10.3029 12.7029C10.753 12.2529 11.3635 12 12 12C12.6365 12 13.247 12.2529 13.6971 12.7029C14.1471 13.153 14.4 13.7635 14.4 14.4C14.4 15.0365 14.1471 15.647 13.6971 16.0971C13.247 16.5471 12.6365 16.8 12 16.8ZM12 24C11.3635 24 10.753 23.7471 10.3029 23.2971C9.85286 22.847 9.60001 22.2365 9.60001 21.6C9.60001 20.9635 9.85286 20.353 10.3029 19.9029C10.753 19.4529 11.3635 19.2 12 19.2C12.6365 19.2 13.247 19.4529 13.6971 19.9029C14.1471 20.353 14.4 20.9635 14.4 21.6C14.4 22.2365 14.1471 22.847 13.6971 23.2971C13.247 23.7471 12.6365 24 12 24ZM18 16.8C17.3635 16.8 16.753 16.5471 16.3029 16.0971C15.8529 15.647 15.6 15.0365 15.6 14.4C15.6 13.7635 15.8529 13.153 16.3029 12.7029C16.753 12.2529 17.3635 12 18 12C18.6365 12 19.247 12.2529 19.6971 12.7029C20.1471 13.153 20.4 13.7635 20.4 14.4C20.4 15.0365 20.1471 15.647 19.6971 16.0971C19.247 16.5471 18.6365 16.8 18 16.8Z" fill="white"/>
</g>
<defs>
<clipPath id="clip0_27_127">
<rect width="24" height="24" fill="white"/>
</clipPath>
</defs>
</svg>
