<svg width="22" height="22" viewBox="0 0 22 22" fill="none" xmlns="http://www.w3.org/2000/svg">
<g clip-path="url(#clip0_222_1880)">
<path d="M16.8438 0H5.15625C2.30853 0 0 2.30853 0 5.15625V16.8438C0 19.6915 2.30853 22 5.15625 22H16.8438C19.6915 22 22 19.6915 22 16.8438V5.15625C22 2.30853 19.6915 0 16.8438 0Z" fill="#001E36"/>
<path d="M4.9502 15.3003V5.86781C4.9502 5.80361 4.9777 5.76701 5.04189 5.76701C5.1977 5.76701 5.34439 5.76701 5.5552 5.75781C5.7752 5.74861 6.00439 5.74861 6.25189 5.73951C6.49939 5.73031 6.7652 5.73031 7.04939 5.72111C7.3335 5.71201 7.6085 5.71201 7.8835 5.71201C8.6352 5.71201 9.2585 5.80361 9.77189 5.99611C10.232 6.15242 10.6516 6.4092 11.0002 6.74781C11.2955 7.04421 11.5237 7.40058 11.6694 7.79281C11.8069 8.17781 11.8802 8.57201 11.8802 8.98451C11.8802 9.77284 11.6969 10.4237 11.3302 10.937C10.9635 11.4503 10.4502 11.8353 9.85439 12.0553C9.231 12.2845 8.5435 12.367 7.79189 12.367C7.57189 12.367 7.4252 12.367 7.3335 12.3578C7.2418 12.3486 7.1135 12.3486 6.93939 12.3486V15.2911C6.9485 15.3553 6.9027 15.4103 6.8385 15.4195H5.0602C4.98689 15.4195 4.9502 15.3828 4.9502 15.3003ZM6.9485 7.53611V10.6161C7.07689 10.6253 7.196 10.6345 7.306 10.6345H7.79189C8.14939 10.6345 8.50689 10.5795 8.846 10.4695C9.13939 10.387 9.396 10.2128 9.5977 9.98361C9.7902 9.75451 9.88189 9.44281 9.88189 9.03951C9.8905 8.75303 9.81735 8.47003 9.671 8.22361C9.5152 7.98531 9.2952 7.80201 9.02939 7.70111C8.6902 7.56361 8.3235 7.50862 7.9477 7.51781C7.70939 7.51781 7.4985 7.51781 7.32439 7.52701C7.141 7.51781 7.0127 7.52701 6.9485 7.53611ZM17.6002 10.057C17.3252 9.91031 17.0319 9.80951 16.7202 9.74531C16.381 9.67201 16.0419 9.62611 15.6935 9.62611C15.5102 9.61701 15.3177 9.64451 15.1435 9.69031C15.0244 9.71781 14.9235 9.78201 14.8594 9.87361C14.8135 9.94701 14.786 10.0386 14.786 10.1211C14.786 10.2036 14.8227 10.2861 14.8777 10.3595C14.9602 10.4603 15.0702 10.5428 15.1894 10.607C15.4019 10.717 15.6191 10.818 15.8402 10.9095C16.3352 11.0745 16.8119 11.3036 17.2519 11.5786C17.5544 11.7711 17.8019 12.0278 17.976 12.3395C18.1227 12.6328 18.196 12.9536 18.1869 13.2836C18.196 13.7145 18.0677 14.1453 17.8294 14.5028C17.5737 14.8687 17.2169 15.1522 16.8027 15.3186C16.3535 15.5111 15.8035 15.612 15.1435 15.612C14.7219 15.612 14.3094 15.5753 13.8969 15.4928C13.5736 15.437 13.2592 15.3383 12.9619 15.1995C12.8977 15.1628 12.8519 15.0986 12.861 15.0253V13.4303C12.861 13.4028 12.8702 13.3661 12.8977 13.3478C12.9252 13.3295 12.9527 13.3386 12.9802 13.357C13.3377 13.5678 13.7135 13.7145 14.1169 13.8061C14.4652 13.8978 14.8319 13.9436 15.1985 13.9436C15.5469 13.9436 15.7944 13.8978 15.9594 13.8153C16.106 13.7511 16.2069 13.5953 16.2069 13.4303C16.2069 13.302 16.1335 13.1828 15.9869 13.0636C15.8402 12.9445 15.5377 12.807 15.0885 12.6328C14.6278 12.4704 14.1902 12.2485 13.7869 11.9728C13.4996 11.7681 13.2616 11.5019 13.0902 11.1936C12.9435 10.9003 12.8702 10.5795 12.8794 10.2586C12.8794 9.86451 12.9894 9.48862 13.191 9.14951C13.4202 8.78281 13.7594 8.48951 14.1535 8.30611C14.5844 8.08611 15.1252 7.98531 15.776 7.98531C16.1519 7.98531 16.5369 8.01281 16.9127 8.06781C17.1877 8.10451 17.4535 8.17781 17.701 8.27861C17.7377 8.28781 17.7744 8.32451 17.7927 8.36111C17.8019 8.39781 17.811 8.43451 17.811 8.47111V9.96531C17.811 10.002 17.7927 10.0386 17.7652 10.057C17.6827 10.0753 17.6369 10.0753 17.6002 10.057Z" fill="#31A8FF"/>
</g>
<defs>
<clipPath id="clip0_222_1880">
<rect width="22" height="22" fill="white"/>
</clipPath>
</defs>
</svg>
