<svg width="17" height="17" viewBox="0 0 17 17" fill="none" xmlns="http://www.w3.org/2000/svg">
<path d="M1.63841 16.2218C1.17135 16.2218 0.78169 16.0657 0.469419 15.7534C0.157149 15.4412 0.00067591 15.0512 0 14.5834V1.63841C0 1.17135 0.156473 0.78169 0.469419 0.469419C0.782366 0.157149 1.17203 0.00067591 1.63841 0H12.0711C12.2894 0 12.5016 0.0439343 12.7078 0.131803C12.9139 0.221023 13.0904 0.338969 13.237 0.485642L15.7362 2.98482C15.8836 3.13217 16.0012 3.30858 16.089 3.51406C16.1776 3.72021 16.2218 3.93245 16.2218 4.15076V14.5834C16.2218 15.0505 16.0657 15.4405 15.7534 15.7534C15.4412 16.0664 15.0512 16.2225 14.5834 16.2218H1.63841ZM15.208 3.90338L12.3185 1.01387H1.63841C1.45591 1.01387 1.3062 1.07233 1.18926 1.18926C1.07233 1.3062 1.01387 1.45591 1.01387 1.63841V14.5845C1.01387 14.7663 1.07233 14.9156 1.18926 15.0326C1.3062 15.1495 1.45591 15.208 1.63841 15.208H14.5845C14.7663 15.208 14.9156 15.1495 15.0326 15.0326C15.1495 14.9156 15.208 14.7659 15.208 14.5834V3.90338ZM8.11092 12.7129C8.6699 12.7129 9.14777 12.5145 9.54453 12.1177C9.94129 11.721 10.1393 11.2431 10.1387 10.6841C10.138 10.1251 9.9396 9.6476 9.54351 9.25152C9.14743 8.85544 8.6699 8.6574 8.11092 8.6574C7.55195 8.6574 7.07441 8.85544 6.67833 9.25152C6.28225 9.6476 6.08387 10.1251 6.08319 10.6841C6.08252 11.2431 6.2809 11.721 6.67833 12.1177C7.07577 12.5145 7.5533 12.7135 8.11092 12.7129ZM3.6266 5.85H9.51513C9.75034 5.85 9.94568 5.77227 10.1011 5.61681C10.2566 5.46135 10.3343 5.26636 10.3343 5.03181V3.6266C10.3343 3.39138 10.2566 3.19604 10.1011 3.04058C9.94568 2.88512 9.75034 2.80739 9.51513 2.80739H3.6266C3.39138 2.80739 3.19604 2.88512 3.04058 3.04058C2.88512 3.19604 2.80739 3.39138 2.80739 3.6266V5.0308C2.80739 5.26602 2.88512 5.46135 3.04058 5.61681C3.19604 5.77227 3.39138 5.85 3.6266 5.85ZM1.01387 3.90338V15.208V1.01387V3.90338Z" fill="white"/>
</svg>
