<svg width="32" height="32" viewBox="0 0 32 32" fill="none" xmlns="http://www.w3.org/2000/svg">
<path d="M25.98 26.872L17.6307 18.5227C16.964 19.0907 16.1973 19.5302 15.3307 19.8413C14.464 20.1524 13.5929 20.308 12.7173 20.308C10.5822 20.308 8.77511 19.5689 7.296 18.0907C5.81689 16.6124 5.07733 14.8058 5.07733 12.6707C5.07733 10.5356 5.816 8.728 7.29333 7.248C8.77066 5.768 10.5769 5.02711 12.712 5.02533C14.8471 5.02356 16.6551 5.76311 18.136 7.244C19.6169 8.72489 20.3573 10.5324 20.3573 12.6667C20.3573 13.5929 20.1933 14.4893 19.8653 15.356C19.5373 16.2227 19.1062 16.964 18.572 17.58L26.9213 25.928L25.98 26.872ZM12.7187 18.9733C14.4876 18.9733 15.9809 18.3644 17.1987 17.1467C18.4164 15.9289 19.0253 14.4351 19.0253 12.6653C19.0253 10.8956 18.4164 9.40222 17.1987 8.18533C15.9809 6.96844 14.4876 6.35956 12.7187 6.35867C10.9498 6.35778 9.456 6.96667 8.23733 8.18533C7.01866 9.404 6.40978 10.8973 6.41066 12.6653C6.41155 14.4333 7.02044 15.9267 8.23733 17.1453C9.45422 18.364 10.9476 18.9729 12.7173 18.972" fill="white"/>
</svg>
