<svg width="32" height="32" viewBox="0 0 32 32" fill="none" xmlns="http://www.w3.org/2000/svg">
<path d="M8.82135 25.3333C8.20713 25.3333 7.69469 25.128 7.28402 24.7173C6.87335 24.3067 6.66758 23.7938 6.66669 23.1787V20.6147C6.66669 20.4253 6.73024 20.2671 6.85735 20.14C6.98446 20.0129 7.14313 19.9489 7.33335 19.948C7.52358 19.9471 7.68224 20.0111 7.80935 20.14C7.93646 20.2689 8.00002 20.4271 8.00002 20.6147V23.1787C8.00002 23.384 8.08535 23.5725 8.25602 23.744C8.42669 23.9156 8.61469 24.0009 8.82002 24H23.18C23.3845 24 23.5725 23.9147 23.744 23.744C23.9156 23.5733 24.0009 23.3849 24 23.1787V20.6147C24 20.4253 24.0636 20.2671 24.1907 20.14C24.3178 20.0129 24.4765 19.9489 24.6667 19.948C24.8569 19.9471 25.0156 20.0111 25.1427 20.14C25.2698 20.2689 25.3334 20.4271 25.3334 20.6147V23.1787C25.3334 23.7929 25.128 24.3053 24.7174 24.716C24.3067 25.1267 23.7938 25.3325 23.1787 25.3333H8.82135ZM15.3334 9.23601L12.7054 11.864C12.5756 11.9938 12.4214 12.0618 12.2427 12.068C12.064 12.0742 11.9014 12.0036 11.7547 11.856C11.6125 11.7093 11.54 11.5525 11.5374 11.3853C11.5347 11.2173 11.6071 11.06 11.7547 10.9133L15.2454 7.42001C15.3627 7.30446 15.4818 7.22312 15.6027 7.17601C15.7245 7.1289 15.8569 7.10535 16 7.10535C16.1431 7.10535 16.2756 7.1289 16.3974 7.17601C16.5191 7.22312 16.6382 7.3049 16.7547 7.42135L20.2454 10.9133C20.376 11.0431 20.4445 11.196 20.4507 11.372C20.456 11.548 20.388 11.7093 20.2467 11.856C20.0991 12.0036 19.9405 12.0787 19.7707 12.0813C19.6009 12.084 19.4422 12.0116 19.2947 11.864L16.6667 9.23601V20.1027C16.6667 20.2929 16.6031 20.4516 16.476 20.5787C16.3489 20.7058 16.1902 20.7693 16 20.7693C15.8098 20.7693 15.6511 20.7058 15.524 20.5787C15.3969 20.4516 15.3334 20.2929 15.3334 20.1027V9.23601Z" fill="white" fill-opacity="0.6"/>
</svg>
