<svg width="23" height="22" viewBox="0 0 23 22" fill="none" xmlns="http://www.w3.org/2000/svg">
<g clip-path="url(#clip0_222_1906)">
<mask id="mask0_222_1906" style="mask-type:luminance" maskUnits="userSpaceOnUse" x="0" y="0" width="23" height="22">
<path d="M15.6657 21.8792C15.8414 21.9477 16.0294 21.9793 16.2179 21.9721C16.4064 21.9649 16.5914 21.9189 16.7613 21.8371L21.3087 19.649C21.5429 19.5363 21.7405 19.3597 21.8788 19.1396C22.0171 18.9195 22.0904 18.6648 22.0904 18.4049V3.56824C22.0904 3.30833 22.017 3.05368 21.8787 2.83361C21.7405 2.61353 21.5429 2.43696 21.3087 2.3242L16.7614 0.136069C16.5045 0.0124664 16.2155 -0.0282224 15.9344 0.0196327C15.6533 0.0674877 15.394 0.201521 15.1924 0.403188L6.48708 8.34527L2.69512 5.46691C2.52407 5.33707 2.31297 5.27121 2.09843 5.28075C1.8839 5.29029 1.67947 5.37463 1.52063 5.51914L0.304478 6.62546C-0.0965454 6.9902 -0.0969784 7.62109 0.303439 7.98643L3.59192 10.9866L0.303439 13.9866C-0.0969784 14.3521 -0.0965454 14.9829 0.304478 15.3477L1.52063 16.4539C1.67946 16.5984 1.88388 16.6828 2.09842 16.6924C2.31295 16.7019 2.52406 16.6361 2.69512 16.5062L6.48708 13.6278L15.1924 21.5699C15.327 21.7047 15.4882 21.81 15.6657 21.8792ZM16.572 5.97257L9.96664 10.9866L16.572 16.0005V5.97257Z" fill="white"/>
</mask>
<g mask="url(#mask0_222_1906)">
<path d="M21.3222 2.3276L16.7713 0.136439C16.5143 0.0126975 16.2252 -0.028099 15.9439 0.0196946C15.6627 0.0674882 15.4033 0.201509 15.2016 0.403211L0.303601 13.9867C-0.0970758 14.3521 -0.0965562 14.9829 0.304641 15.3477L1.52157 16.4539C1.68055 16.5985 1.8851 16.6829 2.09975 16.6924C2.31441 16.702 2.52565 16.6361 2.69684 16.5063L20.6374 2.89605C21.2393 2.43951 22.1038 2.86877 22.1038 3.62422V3.57138C22.1038 3.31152 22.0304 3.05694 21.8921 2.83691C21.7539 2.61689 21.5563 2.44035 21.3222 2.3276Z" fill="#0065A9"/>
</g>
<mask id="mask1_222_1906" style="mask-type:luminance" maskUnits="userSpaceOnUse" x="0" y="0" width="23" height="22">
<path d="M15.6657 21.8792C15.8414 21.9477 16.0294 21.9793 16.2179 21.9721C16.4064 21.9649 16.5914 21.9189 16.7613 21.8371L21.3087 19.649C21.5429 19.5363 21.7405 19.3597 21.8788 19.1396C22.0171 18.9195 22.0904 18.6648 22.0904 18.4049V3.56824C22.0904 3.30833 22.017 3.05368 21.8787 2.83361C21.7405 2.61353 21.5429 2.43696 21.3087 2.3242L16.7614 0.136069C16.5045 0.0124664 16.2155 -0.0282224 15.9344 0.0196327C15.6533 0.0674877 15.394 0.201521 15.1924 0.403188L6.48708 8.34527L2.69512 5.46691C2.52407 5.33707 2.31297 5.27121 2.09843 5.28075C1.8839 5.29029 1.67947 5.37463 1.52063 5.51914L0.304478 6.62546C-0.0965454 6.9902 -0.0969784 7.62109 0.303439 7.98643L3.59192 10.9866L0.303439 13.9866C-0.0969784 14.3521 -0.0965454 14.9829 0.304478 15.3477L1.52063 16.4539C1.67946 16.5984 1.88388 16.6828 2.09842 16.6924C2.31295 16.7019 2.52406 16.6361 2.69512 16.5062L6.48708 13.6278L15.1924 21.5699C15.327 21.7047 15.4882 21.81 15.6657 21.8792ZM16.572 5.97257L9.96664 10.9866L16.572 16.0005V5.97257Z" fill="white"/>
</mask>
<g mask="url(#mask1_222_1906)">
<path d="M21.3222 19.6455L16.7713 21.8366C16.5143 21.9603 16.2252 22.0011 15.9439 21.9533C15.6627 21.9055 15.4033 21.7715 15.2016 21.5699L0.303601 7.98641C-0.0970758 7.62107 -0.0965562 6.99018 0.304641 6.62545L1.52157 5.51912C1.68056 5.37458 1.88511 5.29023 2.09977 5.28069C2.31443 5.27115 2.52566 5.33703 2.69684 5.46689L20.6374 19.077C21.2393 19.5336 22.1038 19.1043 22.1038 18.3488V18.4017C22.1038 18.6615 22.0304 18.9161 21.8921 19.1361C21.7539 19.3562 21.5563 19.5327 21.3222 19.6455Z" fill="#007ACC"/>
</g>
<mask id="mask2_222_1906" style="mask-type:luminance" maskUnits="userSpaceOnUse" x="0" y="0" width="23" height="22">
<path d="M15.6657 21.8792C15.8414 21.9477 16.0294 21.9793 16.2179 21.9721C16.4064 21.9649 16.5914 21.9189 16.7613 21.8371L21.3087 19.649C21.5429 19.5363 21.7405 19.3597 21.8788 19.1396C22.0171 18.9195 22.0904 18.6648 22.0904 18.4049V3.56824C22.0904 3.30833 22.017 3.05368 21.8787 2.83361C21.7405 2.61353 21.5429 2.43696 21.3087 2.3242L16.7614 0.136069C16.5045 0.0124664 16.2155 -0.0282224 15.9344 0.0196327C15.6533 0.0674877 15.394 0.201521 15.1924 0.403188L6.48708 8.34527L2.69512 5.46691C2.52407 5.33707 2.31297 5.27121 2.09843 5.28075C1.8839 5.29029 1.67947 5.37463 1.52063 5.51914L0.304478 6.62546C-0.0965454 6.9902 -0.0969784 7.62109 0.303439 7.98643L3.59192 10.9866L0.303439 13.9866C-0.0969784 14.3521 -0.0965454 14.9829 0.304478 15.3477L1.52063 16.4539C1.67946 16.5984 1.88388 16.6828 2.09842 16.6924C2.31295 16.7019 2.52406 16.6361 2.69512 16.5062L6.48708 13.6278L15.1924 21.5699C15.327 21.7047 15.4882 21.81 15.6657 21.8792ZM16.572 5.97257L9.96664 10.9866L16.572 16.0005V5.97257Z" fill="white"/>
</mask>
<g mask="url(#mask2_222_1906)">
<path d="M16.7569 21.8384C16.4998 21.9621 16.2107 22.0028 15.9294 21.955C15.6482 21.9071 15.3887 21.7731 15.187 21.5713C15.6964 22.0806 16.5675 21.7199 16.5675 20.9994V0.976397C16.5675 0.25594 15.6964 -0.104808 15.187 0.40457C15.3887 0.20283 15.6482 0.0687599 15.9294 0.0209056C16.2106 -0.0269487 16.4998 0.013778 16.7569 0.137452L21.307 2.32559C21.5413 2.43828 21.739 2.61483 21.8773 2.83491C22.0157 3.05499 22.0891 3.30966 22.0891 3.56963V18.4064C22.0891 18.9369 21.7851 19.4205 21.307 19.6504L16.7569 21.8384Z" fill="#1F9CF0"/>
</g>
<mask id="mask3_222_1906" style="mask-type:luminance" maskUnits="userSpaceOnUse" x="0" y="0" width="23" height="22">
<path d="M15.6657 21.8792C15.8414 21.9477 16.0294 21.9793 16.2179 21.9721C16.4064 21.9649 16.5914 21.9189 16.7613 21.8371L21.3087 19.649C21.5429 19.5363 21.7405 19.3597 21.8788 19.1396C22.0171 18.9195 22.0904 18.6648 22.0904 18.4049V3.56824C22.0904 3.30833 22.017 3.05368 21.8787 2.83361C21.7405 2.61353 21.5429 2.43696 21.3087 2.3242L16.7614 0.136069C16.5045 0.0124664 16.2155 -0.0282224 15.9344 0.0196327C15.6533 0.0674877 15.394 0.201521 15.1924 0.403188L6.48708 8.34527L2.69512 5.46691C2.52407 5.33707 2.31297 5.27121 2.09843 5.28075C1.8839 5.29029 1.67947 5.37463 1.52063 5.51914L0.304478 6.62546C-0.0965454 6.9902 -0.0969784 7.62109 0.303439 7.98643L3.59192 10.9866L0.303439 13.9866C-0.0969784 14.3521 -0.0965454 14.9829 0.304478 15.3477L1.52063 16.4539C1.67946 16.5984 1.88388 16.6828 2.09842 16.6924C2.31295 16.7019 2.52406 16.6361 2.69512 16.5062L6.48708 13.6278L15.1924 21.5699C15.327 21.7047 15.4882 21.81 15.6657 21.8792ZM16.572 5.97257L9.96664 10.9866L16.572 16.0005V5.97257Z" fill="white"/>
</mask>
<g mask="url(#mask3_222_1906)">
<path d="M15.6657 21.8792C15.8414 21.9477 16.0294 21.9793 16.2179 21.9721C16.4064 21.9649 16.5914 21.9189 16.7613 21.8371L21.3086 19.6489C21.5428 19.5362 21.7404 19.3596 21.8787 19.1396C22.017 18.9195 22.0904 18.6648 22.0904 18.4049V3.56824C22.0904 3.30832 22.017 3.05368 21.8787 2.8336C21.7405 2.61353 21.5429 2.43696 21.3087 2.3242L16.7613 0.13598C16.5043 0.0123971 16.2153 -0.0282809 15.9342 0.0195738C15.6532 0.0674284 15.3939 0.20145 15.1923 0.403098L6.48708 8.34527L2.69512 5.46691C2.52407 5.33707 2.31297 5.27121 2.09843 5.28075C1.8839 5.29029 1.67947 5.37463 1.52063 5.51914L0.304478 6.62546C-0.0965454 6.99019 -0.0969784 7.62109 0.303439 7.98643L3.59192 10.9866L0.303439 13.9866C-0.0969784 14.3521 -0.0965454 14.9829 0.304478 15.3477L1.52063 16.4539C1.67946 16.5984 1.88388 16.6828 2.09842 16.6924C2.31295 16.7019 2.52406 16.6361 2.69512 16.5062L6.48708 13.6278L15.1923 21.5699C15.327 21.7046 15.4882 21.8099 15.6657 21.8792ZM16.572 5.97248L9.96664 10.9866L16.572 16.0005V5.97248Z" fill="url(#paint0_linear_222_1906)" fill-opacity="0.25"/>
</g>
</g>
<defs>
<linearGradient id="paint0_linear_222_1906" x1="1104.35" y1="6.10352e-05" x2="1104.35" y2="2197.31" gradientUnits="userSpaceOnUse">
<stop stop-color="white"/>
<stop offset="1" stop-color="white" stop-opacity="0"/>
</linearGradient>
<clipPath id="clip0_222_1906">
<rect width="22.18" height="22" fill="white"/>
</clipPath>
</defs>
</svg>
